STARTFONT 2.1
FONT -Monotype-Plantin-Regular-R-Normal--50-360-100-100-P-297-iso8859-5
SIZE 36 100 100
FONTBOUNDINGBOX 62 55 -3 -11

STARTPROPERTIES 24
FOUNDRY "Monotype"
FAMILY_NAME "Plantin"
WEIGHT_NAME "Regular"
SLANT "R"
SETWIDTH_NAME "Normal"
ADD_STYLE_NAME ""
PIXEL_SIZE 50
POINT_SIZE 360
RESOLUTION_X 100
RESOLUTION_Y 100
SPACING "P"
AVERAGE_WIDTH 297
CHARSET_REGISTRY "iso8859"
CHARSET_ENCODING "5"
FACE_NAME "Plantin ISO Latin Cyrillic"
_DEC_DEVICE_FONTNAMES "PS=plantin-latcyrillic"
COPYRIGHT "Copyright (c) 1993 Monotype Typography Ltd."
CAP_HEIGHT 39
X_HEIGHT 26
WEIGHT 10
QUAD_WIDTH 34
DEFAULT_CHAR 160
FONT_DESCENT 13
FONT_ASCENT 45
ENDPROPERTIES

CHARS 191

STARTCHAR space
ENCODING 32
SWIDTH 250 0
DWIDTH 13 0
BBX 0 0 0 0
BITMAP
ENDCHAR

STARTCHAR exclam
ENCODING 33
SWIDTH 292 0
DWIDTH 15 0
BBX 10 36 2 -1
BITMAP
1E00
3F00
3F00
3F00
3F00
3F00
1E00
1E00
1E00
1E00
1E00
1E00
1E00
1E00
1E00
1E00
1E00
1E00
1E00
1C00
0C00
0C00
0C00
0C00
0C00
0C00
0000
0000
0000
0000
1E00
3F00
3F00
3F00
3F00
1E00
ENDCHAR

STARTCHAR quotedbl
ENCODING 34
SWIDTH 406 0
DWIDTH 20 0
BBX 17 14 2 20
BITMAP
381C00
7C3E00
7C3E00
7C3E00
7C3E00
7C3E00
383E00
381C00
381C00
381C00
381C00
381C00
100C00
100800
ENDCHAR

STARTCHAR numbersign
ENCODING 35
SWIDTH 500 0
DWIDTH 25 0
BBX 27 34 -1 0
BITMAP
00180600
00180600
00300600
00300600
00300C00
00300C00
00300C00
00600C00
00601800
00601800
00601800
3FFFFF80
3FFFFF80
00C03000
00C03000
00C03000
01803000
01803000
01806000
01806000
01806000
3FFFFF80
3FFFFF80
0300C000
0300C000
0300C000
0600C000
0600C000
06018000
06018000
06018000
0C018000
0C018000
0C030000
ENDCHAR

STARTCHAR dollar
ENCODING 36
SWIDTH 552 0
DWIDTH 28 0
BBX 26 40 1 -6
BITMAP
00C18000
00C18000
00FF8000
03FFE000
07C1F800
0EC1FC00
1CC1BE00
18C1BE00
38C19E00
38C18E00
38C18000
3CC18000
3EC18000
1FC18000
1FE18000
0FFD8000
07FF8000
03FFE000
00FFF800
00DFFC00
00C3FE00
00C1FE00
00C1BF00
00C18F00
00C18F00
00C18700
00C18700
3CC18700
3CC18700
3EC18E00
3EC18E00
1FC19C00
0FC1F800
03FFE000
00FF8000
00C18000
00C18000
00C18000
00C18000
00C18000
ENDCHAR

STARTCHAR percent
ENCODING 37
SWIDTH 875 0
DWIDTH 44 0
BBX 43 36 0 -1
BITMAP
03E00001C000
0E3800018000
1C1C00038000
1C1E00030000
380E00060000
380E000E0000
780F000C0000
780F001C0000
780F00380000
780F00300000
780F00700000
780F00E00000
380E00C00000
380E01C00000
1C0C03800000
1C1C03000000
0E3807000000
03E006000000
00000E000000
00001C00FC00
000018038E00
000038070700
0000700F0380
0000600E0380
0000E00E03C0
0001C01E03C0
0001801E03C0
0003801E03C0
0003001E03C0
0007001E03C0
000E000E0380
000C000E0380
001C000F0380
003800070700
003000038E00
00700000F800
ENDCHAR

STARTCHAR ampersand
ENCODING 38
SWIDTH 750 0
DWIDTH 38 0
BBX 37 36 0 -1
BITMAP
0001C00000
0007F00000
001FF80000
00387C0000
00703C0000
00E01E0000
01E01E0000
01E01E0000
01F01C0000
01F03C0000
01F8780000
00FCF00000
007FC00000
007F807FF0
003F807FF0
003FC03FC0
007FE00F80
01E7F00F00
03C3F00E00
0781F80E00
0F00FC0C00
1E00FE1800
3C007E3800
3C003F3000
7C003FF000
7C001FE000
7E000FC000
7E000FE000
7F0007E000
3F8007F000
3FC00FF800
1FF03DFE00
0FFFF8FF80
07FFE07FE0
03FFC03FE0
007E0007E0
ENDCHAR

STARTCHAR quoteright
ENCODING 39
SWIDTH 292 0
DWIDTH 15 0
BBX 11 14 2 21
BITMAP
1F00
3F80
3F80
3FC0
1FC0
03C0
01C0
01C0
0180
0380
0700
1E00
3800
2000
ENDCHAR

STARTCHAR parenleft
ENCODING 40
SWIDTH 385 0
DWIDTH 19 0
BBX 17 43 3 -9
BITMAP
000600
001E00
003C00
007800
00F000
01E000
01C000
038000
078000
070000
0E0000
0E0000
1E0000
1C0000
1C0000
1C0000
380000
380000
380000
380000
380000
380000
380000
380000
380000
380000
3C0000
1C0000
1C0000
1C0000
1E0000
0E0000
0F0000
070000
078000
038000
01C000
01E000
00F000
007800
003C00
000F00
000600
ENDCHAR

STARTCHAR parenright
ENCODING 41
SWIDTH 385 0
DWIDTH 19 0
BBX 17 44 -1 -9
BITMAP
100000
380000
3C0000
0E0000
070000
038000
01C000
01E000
00F000
007000
007800
003800
003800
001C00
001C00
001C00
000E00
000E00
000E00
000E00
000E00
000E00
000E00
000E00
000E00
000E00
000E00
000E00
001C00
001C00
001C00
003800
003800
007800
007000
00E000
01E000
01C000
038000
0F0000
1E0000
3C0000
380000
300000
ENDCHAR

STARTCHAR asterisk
ENCODING 42
SWIDTH 500 0
DWIDTH 25 0
BBX 25 20 -1 16
BITMAP
000C0000
000C0000
000C0000
001E0000
001E0000
001E0000
001E3F00
3FFFFE00
3FFFF800
0FFFF000
03FFE000
007F8000
003F8000
007FC000
007FC000
00FBE000
01E1E000
01C0F000
03803000
03001800
ENDCHAR

STARTCHAR plus
ENCODING 43
SWIDTH 667 0
DWIDTH 33 0
BBX 30 26 2 3
BITMAP
00078000
00078000
00078000
00078000
00078000
00078000
00078000
00078000
00078000
00078000
00078000
3FFFFFF0
3FFFFFF0
3FFFFFF0
3FFFFFF0
00078000
00078000
00078000
00078000
00078000
00078000
00078000
00078000
00078000
00078000
00078000
ENDCHAR

STARTCHAR comma
ENCODING 44
SWIDTH 292 0
DWIDTH 15 0
BBX 12 16 1 -8
BITMAP
0F00
1F80
1FC0
1FC0
1FE0
0FE0
00E0
00E0
00E0
00E0
00C0
01C0
0380
1F00
7C00
4000
ENDCHAR

STARTCHAR minus
ENCODING 45
SWIDTH 667 0
DWIDTH 33 0
BBX 30 4 2 14
BITMAP
7FFFFFF0
7FFFFFF0
7FFFFFF0
7FFFFFF0
ENDCHAR

STARTCHAR period
ENCODING 46
SWIDTH 292 0
DWIDTH 15 0
BBX 10 6 2 -1
BITMAP
1E00
3F00
3F00
3F00
3F00
1E00
ENDCHAR

STARTCHAR slash
ENCODING 47
SWIDTH 281 0
DWIDTH 14 0
BBX 17 36 -1 -1
BITMAP
000600
000600
000C00
000C00
000C00
001800
001800
001800
003000
003000
003000
006000
006000
006000
00C000
00C000
00C000
018000
018000
010000
030000
030000
020000
060000
060000
040000
0C0000
0C0000
080000
180000
180000
100000
300000
300000
200000
600000
ENDCHAR

STARTCHAR zero
ENCODING 48
SWIDTH 552 0
DWIDTH 28 0
BBX 25 35 1 -1
BITMAP
003F0000
00FFC000
01C3E000
0381F000
0700F800
0E007800
0E007C00
1E003C00
1E003E00
1C003E00
3C003E00
3C001E00
3C001F00
3C001F00
7C001F00
7C001F00
7C001F00
7C001F00
7C001F00
7C001F00
7C001F00
7C001F00
3C001E00
3C001E00
3E001E00
3E001E00
1E003C00
1E003C00
0F003800
0F007800
07807000
03C0E000
01E1C000
00FF8000
003E0000
ENDCHAR

STARTCHAR one
ENCODING 49
SWIDTH 552 0
DWIDTH 28 0
BBX 17 34 6 0
BITMAP
006000
01E000
07E000
7FE000
7FE000
07E000
03E000
03E000
03E000
03E000
03E000
03E000
03E000
03E000
03E000
03E000
03E000
03E000
03E000
03E000
03E000
03E000
03E000
03E000
03E000
03E000
03E000
03E000
03E000
03E000
03F000
07F800
7FFE00
7FFE00
ENDCHAR

STARTCHAR two
ENCODING 50
SWIDTH 552 0
DWIDTH 28 0
BBX 26 34 1 0
BITMAP
001F0000
007FC000
01FFF000
03FFF800
07C1FC00
0700FC00
0E007E00
1C007E00
18003E00
38003E00
30003E00
10003E00
00003C00
00003C00
00007C00
00007800
0000F000
0001E000
0001C000
00038000
00070000
000E0000
001C0000
00380000
00600000
00C00000
01800300
03000300
06000700
0E000E00
1FFFFE00
3FFFFE00
3FFFFC00
3FFFFC00
ENDCHAR

STARTCHAR three
ENCODING 51
SWIDTH 552 0
DWIDTH 28 0
BBX 26 35 0 -1
BITMAP
001FC000
007FF000
01FFF800
03E3F800
0780FC00
0E007C00
1C007C00
18007C00
00007800
00007800
0000F000
0000E000
0001C000
00078000
000FF000
001FF800
007FFC00
00E0FE00
00007E00
00003F00
00001F00
00001F00
00001F00
00001F00
00001F00
00001E00
00001E00
00003E00
00003C00
00007800
0000F000
0003E000
3C0FC000
1FFF0000
03F80000
ENDCHAR

STARTCHAR four
ENCODING 52
SWIDTH 552 0
DWIDTH 28 0
BBX 27 34 0 0
BITMAP
0000F000
0001F000
0003F000
0003F000
0007F000
000DF000
001DF000
0019F000
0031F000
0071F000
0061F000
00C1F000
01C1F000
0181F000
0301F000
0701F000
0601F000
0C01F000
1C01F180
1801F180
3001F180
3001F780
3FFFFF00
3FFFFF00
0001F000
0001F000
0001F000
0001F000
0001F000
0001F000
0001F000
0003FC00
001FFF00
001FFF00
ENDCHAR

STARTCHAR five
ENCODING 53
SWIDTH 552 0
DWIDTH 28 0
BBX 24 35 2 -1
BITMAP
00000C
07FFFC
07FFFC
07FFF8
0FFFF8
0C0000
0C0000
0C0000
080000
180000
180000
19FC00
1FFF00
3FFFC0
3FFFE0
3C0FF0
3003F0
0001F8
0000F8
0000FC
00007C
00007C
00007C
00007C
00007C
00007C
000078
0000F8
0000F0
0001F0
0003E0
000FC0
203F80
7FFE00
1FF000
ENDCHAR

STARTCHAR six
ENCODING 54
SWIDTH 552 0
DWIDTH 28 0
BBX 24 35 2 -1
BITMAP
0000F0
0007F0
001F00
007800
00F000
01E000
03C000
078000
0F0000
0F0000
1E0000
1E0F00
3E7FC0
3EFFF0
3DC1F8
3F00F8
7E007C
7E007C
7C007C
7C003E
7C003E
7C003E
7C003E
7C003E
3C003E
3C003E
3E003C
1E003C
1E007C
0F0078
0F8070
0780F0
03E3E0
00FF80
003E00
ENDCHAR

STARTCHAR seven
ENCODING 55
SWIDTH 552 0
DWIDTH 28 0
BBX 25 34 1 0
BITMAP
1C000000
1FFFFE00
1FFFFE00
1FFFFE00
1FFFFE00
3C000C00
38001C00
30001800
30003800
00003000
00007000
00006000
0000E000
0000C000
0001C000
0001C000
00038000
00038000
00078000
00070000
00070000
000F0000
000F0000
001E0000
001E0000
001E0000
003E0000
003E0000
003C0000
007C0000
007C0000
007C0000
007C0000
007C0000
ENDCHAR

STARTCHAR eight
ENCODING 56
SWIDTH 552 0
DWIDTH 28 0
BBX 24 35 2 -1
BITMAP
007F00
03FFC0
0783E0
0F00F0
1E0078
1C0038
3C003C
3C003C
3C003C
3E003C
3E0038
3F0078
1FC070
0FF0E0
07FFC0
03FF00
01FFC0
01FFE0
039FF0
0F07F8
1E01FC
3C00FC
38003C
78003E
78001E
78001E
78001E
78001E
7C001C
3C001C
3E0038
1F0078
0F81E0
03FFC0
00FE00
ENDCHAR

STARTCHAR nine
ENCODING 57
SWIDTH 552 0
DWIDTH 28 0
BBX 24 35 1 -1
BITMAP
007E00
01FF80
07C7C0
0F01E0
0E01F0
1E00F0
1E0078
3C007C
3C007C
7C003C
7C003C
7C003E
7C003E
7C003E
7C003E
7C003E
3E003E
3E007E
3F007E
1F00FC
0F83BC
07FF7C
03FE7C
00F078
000078
0000F0
0000F0
0001E0
0003C0
000780
000F00
001E00
00F800
0FE000
0F0000
ENDCHAR

STARTCHAR colon
ENCODING 58
SWIDTH 292 0
DWIDTH 15 0
BBX 10 24 2 -1
BITMAP
1E00
3F00
3F00
3F00
3F00
1E00
0000
0000
0000
0000
0000
0000
0000
0000
0000
0000
0000
0000
1E00
3F00
3F00
3F00
3F00
1E00
ENDCHAR

STARTCHAR semicolon
ENCODING 59
SWIDTH 292 0
DWIDTH 15 0
BBX 12 31 1 -8
BITMAP
0F00
1F80
1F80
1F80
1F80
0F00
0000
0000
0000
0000
0000
0000
0000
0000
0000
0F00
1F80
1FC0
1FC0
1FE0
0FE0
00E0
00E0
00E0
00E0
00C0
01C0
0380
1F00
7C00
4000
ENDCHAR

STARTCHAR less
ENCODING 60
SWIDTH 667 0
DWIDTH 33 0
BBX 30 25 2 4
BITMAP
00000030
000000F0
000003F0
00001FF0
00007FC0
0003FF00
000FFC00
003FE000
01FF8000
07FC0000
1FF00000
7F800000
7E000000
7F800000
7FE00000
0FF80000
03FF0000
007FC000
001FF800
0007FE00
0000FFC0
00003FF0
000007F0
000001F0
00000070
ENDCHAR

STARTCHAR equal
ENCODING 61
SWIDTH 667 0
DWIDTH 33 0
BBX 30 15 2 9
BITMAP
7FFFFFF0
7FFFFFF0
7FFFFFF0
7FFFFFF0
00000000
00000000
00000000
00000000
00000000
00000000
00000000
7FFFFFF0
7FFFFFF0
7FFFFFF0
7FFFFFF0
ENDCHAR

STARTCHAR greater
ENCODING 62
SWIDTH 667 0
DWIDTH 33 0
BBX 30 26 2 3
BITMAP
60000000
7C000000
7F000000
7FC00000
1FF80000
07FE0000
00FF8000
003FF000
000FFC00
0001FF00
00007FE0
00000FF0
000003F0
000007F0
00001FF0
0000FF80
0003FE00
001FF800
007FC000
03FF0000
0FFC0000
7FE00000
7F800000
7C000000
70000000
40000000
ENDCHAR

STARTCHAR question
ENCODING 63
SWIDTH 385 0
DWIDTH 19 0
BBX 19 36 1 -1
BITMAP
1F0000
3FC000
7FE000
7FF000
3C7800
001C00
000E00
000600
000700
000300
000300
000380
000380
000380
000780
000F80
003F80
01FF00
0FFF00
0FFC00
0FF800
07E000
070000
070000
060000
060000
060000
000000
000000
000000
0F0000
1F8000
1F8000
1F8000
1F8000
0F0000
ENDCHAR

STARTCHAR at
ENCODING 64
SWIDTH 917 0
DWIDTH 46 0
BBX 46 46 0 -11
BITMAP
00000FFE0000
000078038000
0003C0006000
000700003800
001C00000C00
003800000600
007000000300
00E000000100
01C000000180
038000000080
0300000000C0
070001E1C040
0600071BC040
0E000C0B8060
0C00180F8060
1C00380F8060
1800700F0060
1800E00F0060
1801E00F0060
3801C00F0060
3803C00E0040
3003801E0040
3007801E00C0
3007801C00C0
3007003C0180
300F007C0180
300F007C0300
300F00B80300
380F01380600
180F03780C00
180F8E781818
1807FC787010
0C07F03FE030
0C01E01F0020
0E0000000060
0600000000C0
0300000000C0
038000000180
01C000000300
00E000000600
007000001C00
001C00003800
000E0000E000
0003C0078000
0000FFFE0000
00000FE00000
ENDCHAR

STARTCHAR A
ENCODING 65
SWIDTH 719 0
DWIDTH 36 0
BBX 38 34 -1 0
BITMAP
0000F80000
0000F80000
0000FC0000
0001FC0000
0001FE0000
0001BE0000
00033F0000
00033F0000
00071F0000
00061F8000
00060F8000
000C0FC000
000C07C000
001C07E000
001807E000
001803E000
003003F000
003001F000
007FFFF800
007FFFF800
007FFFFC00
00E000FC00
00C0007C00
01C0007E00
0180003E00
0180003F00
0380003F00
0380001F80
0780001F80
0780001F80
0F80001FC0
1FC0007FE0
7FF801FFF8
7FF801FFF8
ENDCHAR

STARTCHAR B
ENCODING 66
SWIDTH 688 0
DWIDTH 34 0
BBX 34 34 0 0
BITMAP
3FFFFF0000
3FFFFFE000
07F00FF800
03F003FC00
01F001FC00
01F000FE00
01F0007E00
01F0007E00
01F0007E00
01F0007E00
01F0007E00
01F000FC00
01F000F800
01F001F000
01F007C000
01FFFE0000
01FFFF8000
01F00FE000
01F003F800
01F000FC00
01F0007E00
01F0007E00
01F0003F00
01F0003F00
01F0003F00
01F0003F00
01F0003F00
01F0003F00
01F0007E00
01F8007E00
03F800FC00
07FE03F800
3FFFFFE000
3FFFFF8000
ENDCHAR

STARTCHAR C
ENCODING 67
SWIDTH 781 0
DWIDTH 39 0
BBX 36 36 1 -1
BITMAP
00007FE000
0003FFFE00
001FC0FFC0
003E001FC0
00FC000FC0
01F80003C0
03F00001C0
03E00001C0
07C00000C0
0FC0000060
0F80000000
1F80000000
1F80000000
1F00000000
3F00000000
3F00000000
3F00000000
3F00000000
3F00000000
3F00000000
3F00000000
3F00000000
3F80000000
1F80000000
1F80000000
1FC0000060
0FC0000060
0FE00000E0
07E00000E0
03F00001E0
01F80003E0
00FC0007E0
007F000FE0
001FE03FC0
0007FFFE00
0000FFE000
ENDCHAR

STARTCHAR D
ENCODING 68
SWIDTH 844 0
DWIDTH 42 0
BBX 42 34 0 0
BITMAP
7FFFFFC00000
7FFFFFFC0000
07F003FF0000
03F0007F8000
01F0001FE000
01F0000FF000
01F00007F800
01F00003F800
01F00001FC00
01F00000FE00
01F00000FE00
01F000007E00
01F000007F00
01F000007F00
01F000003F00
01F000003F00
01F000003F00
01F000003F00
01F000003F00
01F000003F00
01F000003F00
01F000003E00
01F000007E00
01F000007E00
01F000007C00
01F00000FC00
01F00000F800
01F00001F000
01F00003E000
01F80007C000
03FC001F8000
07FE00FE0000
7FFFFFF80000
7FFFFFC00000
ENDCHAR

STARTCHAR E
ENCODING 69
SWIDTH 677 0
DWIDTH 34 0
BBX 35 34 0 0
BITMAP
3FFFFFFC00
3FFFFFFC00
07F000FC00
03F0003C00
01F0001C00
01F0000C00
01F0000C00
01F0000000
01F0000000
01F0000000
01F0003000
01F0007000
01F0007000
01F000F000
01F001F000
01FFFFF000
01FFFFF000
01F003F000
01F000F000
01F0007000
01F0007000
01F0007000
01F0000000
01F0000000
01F0000000
01F0000000
01F0000380
01F0000380
01F8000700
01F8000F00
03FC001F00
07FE00FF00
3FFFFFFE00
3FFFFFFE00
ENDCHAR

STARTCHAR F
ENCODING 70
SWIDTH 656 0
DWIDTH 33 0
BBX 33 34 0 0
BITMAP
7FFFFFFF00
7FFFFFFF00
07F0007F00
03F0001F00
01F0000F00
01F0000700
01F0000700
01F0000300
01F0000000
01F0000000
01F0003000
01F0007000
01F0007000
01F0007000
01F001F000
01FFFFF000
01FFFFF000
01F003F000
01F000F000
01F0007000
01F0007000
01F0007000
01F0003000
01F0000000
01F0000000
01F0000000
01F0000000
01F0000000
01F0000000
01F8000000
03F8000000
07FC000000
3FFFC00000
3FFFC00000
ENDCHAR

STARTCHAR G
ENCODING 71
SWIDTH 833 0
DWIDTH 42 0
BBX 42 36 0 -1
BITMAP
00003FF80000
0003FFFF8000
000FC03FE000
003F000FE000
007C0003E000
00F80001E000
01F00001E000
03E00000F000
07E000007000
0FC000007000
0F8000000000
1F8000000000
1F8000000000
1F8000000000
3F0000000000
3F0000000000
3F0000000000
3F00007FFF80
3F00007FFF80
3F000007FE00
3F800003F800
3F800003F800
3F800001F000
1F800001F000
1FC00001F000
0FC00001F000
0FE00001F000
07E00001F000
07F00001F000
03F80001F000
01FC0001F000
00FE0001F000
003F0007F000
001FE03FF000
0007FFFF8000
00007FF00000
ENDCHAR

STARTCHAR H
ENCODING 72
SWIDTH 854 0
DWIDTH 43 0
BBX 43 34 0 0
BITMAP
3FFFC03FFFC0
3FFFC03FFFC0
07FC0007FC00
03F80003F800
01F80003F800
01F00001F000
01F00001F000
01F00001F000
01F00001F000
01F00001F000
01F00001F000
01F00001F000
01F00001F000
01F00001F000
01F00001F000
01FFFFFFF000
01FFFFFFF000
01FFFFFFF000
01F00001F000
01F00001F000
01F00001F000
01F00001F000
01F00001F000
01F00001F000
01F00001F000
01F00001F000
01F00001F000
01F00001F000
01F00001F000
01F80003F800
03F80003F800
07FC0007FC00
3FFFC03FFFC0
3FFFC03FFFC0
ENDCHAR

STARTCHAR I
ENCODING 73
SWIDTH 375 0
DWIDTH 19 0
BBX 19 34 0 0
BITMAP
7FFFC0
7FFFC0
07FC00
03F800
01F000
01F000
01F000
01F000
01F000
01F000
01F000
01F000
01F000
01F000
01F000
01F000
01F000
01F000
01F000
01F000
01F000
01F000
01F000
01F000
01F000
01F000
01F000
01F000
01F000
01F800
03F800
07FC00
7FFFC0
7FFFC0
ENDCHAR

STARTCHAR J
ENCODING 74
SWIDTH 354 0
DWIDTH 18 0
BBX 22 43 -3 -9
BITMAP
0FFFF8
0FFFF8
00FF80
007F00
003E00
003E00
003E00
003E00
003E00
003E00
003E00
003E00
003E00
003E00
003E00
003E00
003E00
003E00
003E00
003E00
003E00
003E00
003E00
003E00
003E00
003E00
003E00
003E00
003E00
003E00
003E00
003E00
003E00
003E00
003E00
003E00
003C00
103C00
3C3C00
7C3800
7E7000
3FE000
1F8000
ENDCHAR

STARTCHAR K
ENCODING 75
SWIDTH 802 0
DWIDTH 40 0
BBX 42 34 0 0
BITMAP
3FFF81FFF800
3FFF81FFF800
07FC007FC000
03F8003F0000
01F0003E0000
01F000380000
01F000700000
01F000E00000
01F001C00000
01F003800000
01F007000000
01F01E000000
01F038000000
01F070000000
01F1E0000000
01F3E0000000
01F7F0000000
01F3F8000000
01F1FE000000
01F0FF000000
01F07F800000
01F03FC00000
01F01FE00000
01F007F00000
01F003F80000
01F001FC0000
01F000FE0000
01F0007F8000
01F0003FC000
01F8001FE000
03F8000FF800
07FC0007FE00
3FFFC003FF80
3FFFC000FF80
ENDCHAR

STARTCHAR L
ENCODING 76
SWIDTH 677 0
DWIDTH 34 0
BBX 37 34 0 0
BITMAP
7FFFC00000
7FFFC00000
07FC000000
03F8000000
01F0000000
01F0000000
01F0000000
01F0000000
01F0000000
01F0000000
01F0000000
01F0000000
01F0000000
01F0000000
01F0000000
01F0000000
01F0000000
01F0000000
01F0000000
01F0000000
01F0000000
01F0000000
01F0000000
01F0000000
01F0000000
01F0000000
01F0000060
01F00000E0
01F80001C0
01F80003C0
03FC0007C0
07FE001FC0
7FFFFFFF80
7FFFFFFF80
ENDCHAR

STARTCHAR M
ENCODING 77
SWIDTH 1010 0
DWIDTH 51 0
BBX 52 34 0 0
BITMAP
07FE00000FFC00
07FE00000FFC00
01FE00000FF000
00FF00000FE000
007F00000FC000
007F00000FC000
007F80001FC000
007F80001FC000
006F80003FC000
006FC00037C000
00CFC00037E000
00C7E00067E000
00C7E00067E000
00C3F000E3E000
00C3F000C3E000
00C1F801C3E000
01C1F80183E000
0180FC0383F000
0180FC0303F000
01807E0703F000
01807E0601F000
01803F0E01F000
03803F0C01F000
03001F1C01F000
03001F9801F800
03000FB801F800
03000FF001F800
030007F001F800
070007E001F800
070003E001FC00
0F8003C001FC00
1FC003C003FF00
7FF801C01FFFC0
7FF801801FFFC0
ENDCHAR

STARTCHAR N
ENCODING 78
SWIDTH 844 0
DWIDTH 42 0
BBX 44 34 -1 0
BITMAP
7FC00007FFC0
7FE00007FFC0
0FF00000FF00
07F800007C00
03FC00003C00
01FE00003800
00FF00003800
00FF80003800
00FFC0001800
00DFE0001800
00CFF0001800
00C7F8001800
00C3FC001800
00C1FE001800
00C0FF001800
00C07F801800
00C03FC01800
00C01FE01800
00C00FF01800
00C007F81800
00E003FC1800
00E001FE1800
00E000FF1800
00E0007F9800
00E0003FD800
00E0001FF800
00E0000FF800
00E00007F800
00E00003F800
00E00001F800
01F00000FC00
03FC00007C00
3FFF80007C00
3FFF80003C00
ENDCHAR

STARTCHAR O
ENCODING 79
SWIDTH 812 0
DWIDTH 41 0
BBX 38 36 2 -1
BITMAP
0003FE0000
001FFFC000
007E07F000
00F801F800
01E000FC00
03C0007E00
0780003F00
0F80001F80
0F00001FC0
1F00000FC0
1F00000FE0
3E000007E0
3E000007E0
3E000007F0
3E000007F0
7E000003F0
7E000003F0
7E000003F0
7E000003F0
7E000003F0
7E000003F0
7F000003F0
7F000003F0
3F000003E0
3F000003E0
3F800007E0
1F800007C0
1FC00007C0
0FC0000F80
07E0000F00
07F0001E00
03F8003C00
00FC00F800
007F03E000
001FFF8000
0003FC0000
ENDCHAR

STARTCHAR P
ENCODING 80
SWIDTH 635 0
DWIDTH 32 0
BBX 33 34 0 0
BITMAP
3FFFFF0000
3FFFFFC000
07F00FF000
03F003F800
01F001FC00
01F000FC00
01F000FE00
01F0007E00
01F0007E00
01F0007E00
01F0007E00
01F0007E00
01F000FC00
01F000FC00
01F001F800
01F007F000
01F1FFE000
01F1FF8000
01F0F80000
01F0000000
01F0000000
01F0000000
01F0000000
01F0000000
01F0000000
01F0000000
01F0000000
01F0000000
01F0000000
01F8000000
03F8000000
07FC000000
3FFFC00000
3FFFC00000
ENDCHAR

STARTCHAR Q
ENCODING 81
SWIDTH 812 0
DWIDTH 41 0
BBX 40 44 2 -9
BITMAP
0003FE0000
001FFFC000
007E07F000
00F001F800
01E000FE00
03C0007F00
0780003F00
0F80001F80
0F00000FC0
1F00000FC0
1F00000FE0
3E000007E0
3E000007E0
3E000007E0
7E000003F0
7E000003F0
7E000003F0
7E000003F0
7E000003F0
7E000003F0
7E000003F0
7F000003F0
7F000003E0
3F000003E0
3F800003E0
1F800007C0
1F800007C0
0FC0000F80
0FE0000F00
07E0001E00
03F0003C00
01FC007800
007F01F000
001FFFC000
0007FE0000
0001FF0000
00007FC000
00003FF800
00000FFF00
000003FFF0
000000FFFC
0000003FFC
00000007FC
000000007C
ENDCHAR

STARTCHAR R
ENCODING 82
SWIDTH 719 0
DWIDTH 36 0
BBX 39 34 0 0
BITMAP
3FFFFF0000
3FFFFFE000
07F00FF000
03F003F800
01F001FC00
01F000FC00
01F000FE00
01F0007E00
01F0007E00
01F0007E00
01F0007E00
01F0007C00
01F000FC00
01F000F800
01F001F000
01F007E000
01FFFF8000
01FFFC0000
01F0FE0000
01F07F0000
01F03F0000
01F01F8000
01F00FC000
01F00FE000
01F007F000
01F003F800
01F001FC00
01F000FE00
01F0007F00
01F8007F80
03F8003FC0
07FC001FE0
3FFF800FF8
3FFF8003F8
ENDCHAR

STARTCHAR S
ENCODING 83
SWIDTH 594 0
DWIDTH 30 0
BBX 27 36 2 -1
BITMAP
007FC000
01FFF800
07E0FE00
0F803F00
1F001F00
1E000F00
3E000700
3E000700
3E000700
3F000300
3F800000
1FC00000
1FF00000
0FF80000
07FE0000
03FF8000
01FFC000
007FF000
003FF800
000FFC00
0003FE00
0001FF00
00007F00
00003F80
00001F80
70001F80
70000F80
70000F80
78000F80
78000F80
7C001F00
7E003E00
7F80FC00
3FFFF800
07FFE000
007F0000
ENDCHAR

STARTCHAR T
ENCODING 84
SWIDTH 760 0
DWIDTH 38 0
BBX 39 34 -1 0
BITMAP
3FFFFFFFF8
3FFFFFFFF8
3F007C01F8
7C007C007C
78007C003C
70007C001C
70007C001C
60007C000C
00007C0000
00007C0000
00007C0000
00007C0000
00007C0000
00007C0000
00007C0000
00007C0000
00007C0000
00007C0000
00007C0000
00007C0000
00007C0000
00007C0000
00007C0000
00007C0000
00007C0000
00007C0000
00007C0000
00007C0000
00007C0000
00007C0000
0000FE0000
0001FF0000
001FFFE000
001FFFE000
ENDCHAR

STARTCHAR U
ENCODING 85
SWIDTH 833 0
DWIDTH 42 0
BBX 43 35 0 -1
BITMAP
7FFFC00FFF80
7FFFC00FFF80
07FC0001FE00
03F800007800
01F000007800
01F000003000
01F000003000
01F000003000
01F000003000
01F000003000
01F000003000
01F000003000
01F000003000
01F000003000
01F000003000
01F000003000
01F000003000
01F000003000
01F000003000
01F000003000
01F000003000
01F000003000
01F000003000
01F000003000
01F000007000
01F800007000
01F800007000
00F80000E000
00FC0001E000
007E0003C000
007F00078000
003FE03F0000
000FFFFE0000
0007FFF80000
0000FFE00000
ENDCHAR

STARTCHAR V
ENCODING 86
SWIDTH 708 0
DWIDTH 35 0
BBX 38 35 -1 -1
BITMAP
7FFE007FF0
7FFE007FF0
1FF0001FE0
0FE0000F80
07E0000780
07E0000700
03E0000700
03F0000600
03F0000E00
01F8000E00
01F8000C00
00FC001C00
00FC001800
007E003800
007E003800
003E003000
003F007000
001F006000
001F80E000
000F80C000
000FC0C000
000FC1C000
0007E18000
0007E38000
0003F30000
0003F70000
0001F60000
0001FE0000
0000FE0000
0000FC0000
00007C0000
00007C0000
0000780000
0000380000
0000380000
ENDCHAR

STARTCHAR W
ENCODING 87
SWIDTH 1000 0
DWIDTH 50 0
BBX 53 35 -2 -1
BITMAP
3FFCFFF3FE7FF0
3FFCFFF3FE7FF0
1FF03FC1FC1FC0
0FE01F80F80F80
07E01F80F00F00
07E00F80E00700
03E00FC0E00600
03F007C0C00E00
01F007E1C00C00
01F803E1800C00
00F803F3801C00
00FC03F3001800
00FC01FF003800
007C01FE003000
007E00FC003000
003E00FC006000
003F007E006000
001F007E00E000
001F803E00C000
000F803F01C000
000FC07F018000
000FC07F818000
0007E0DF830000
0007E0CFC30000
0003E18FC70000
0003F187E60000
0001F307EE0000
0001FB03FC0000
0000FE03FC0000
0000FE01F80000
0000FC01F80000
00007C00F80000
00007800F00000
00003800700000
00003800700000
ENDCHAR

STARTCHAR X
ENCODING 88
SWIDTH 781 0
DWIDTH 39 0
BBX 41 34 -1 0
BITMAP
3FFFC07FF800
3FFFC07FF800
07FE001FE000
03FC000F8000
01FC000F0000
00FE000E0000
007E001C0000
003F00180000
003F80300000
001FC0700000
000FE0E00000
0007F1C00000
0003F3800000
0001FB000000
0001FE000000
0000FE000000
00007F000000
00003F800000
00007FC00000
0000EFC00000
0001C7E00000
000187F00000
000303F80000
000701FC0000
000E00FE0000
001C007E0000
0038007F0000
0070003F8000
00F0001FC000
01F0001FE000
03F0001FF000
0FF8001FFC00
3FFF00FFFF00
3FFF00FFFF00
ENDCHAR

STARTCHAR Y
ENCODING 89
SWIDTH 719 0
DWIDTH 36 0
BBX 39 34 -2 0
BITMAP
3FFF807FF8
3FFF807FF8
0FFC001FE0
03F8000FC0
03F8000F80
01F8000700
00FC000E00
00FE000E00
007E001C00
003F001800
001F803800
001FC07000
000FC0E000
0007E0E000
0007F1C000
0003F38000
0001FB0000
0001FF0000
0000FE0000
00007C0000
00007C0000
00007C0000
00007C0000
00007C0000
00007C0000
00007C0000
00007C0000
00007C0000
00007C0000
00007E0000
0000FE0000
0001FF0000
000FFFE000
000FFFE000
ENDCHAR

STARTCHAR Z
ENCODING 90
SWIDTH 677 0
DWIDTH 34 0
BBX 34 34 0 0
BITMAP
0FFFFFFE00
0FFFFFFE00
0FC000FC00
0F0001F800
0E0003F800
0E0007F000
0C0007E000
0C000FC000
00001FC000
00003F8000
00003F0000
00007E0000
0000FE0000
0001FC0000
0001F80000
0003F00000
0007F00000
000FE00000
000FC00000
001F800000
003F800000
007F000000
007E000000
00FC000000
01FC000000
03F8000300
03F0000700
07E0000700
0FE0000E00
0FC0001E00
1F80007E00
3F0001FE00
7FFFFFFC00
7FFFFFFC00
ENDCHAR

STARTCHAR bracketleft
ENCODING 91
SWIDTH 375 0
DWIDTH 19 0
BBX 14 44 5 -9
BITMAP
3FF8
3FF8
3E00
3C00
3C00
3C00
3C00
3C00
3C00
3C00
3C00
3C00
3C00
3C00
3C00
3C00
3C00
3C00
3C00
3C00
3C00
3C00
3C00
3C00
3C00
3C00
3C00
3C00
3C00
3C00
3C00
3C00
3C00
3C00
3C00
3C00
3C00
3C00
3C00
3C00
3E00
3E00
3FF8
3FF8
ENDCHAR

STARTCHAR backslash
ENCODING 92
SWIDTH 281 0
DWIDTH 14 0
BBX 17 36 -1 -1
BITMAP
600000
300000
300000
300000
180000
180000
180000
0C0000
0C0000
0C0000
060000
060000
060000
030000
030000
030000
018000
018000
018000
00C000
00C000
00C000
006000
006000
006000
003000
003000
003000
001800
001800
001800
000C00
000C00
000C00
000600
000600
ENDCHAR

STARTCHAR bracketright
ENCODING 93
SWIDTH 375 0
DWIDTH 19 0
BBX 14 44 0 -9
BITMAP
7FF0
7FF0
01F0
00F0
00F0
00F0
00F0
00F0
00F0
00F0
00F0
00F0
00F0
00F0
00F0
00F0
00F0
00F0
00F0
00F0
00F0
00F0
00F0
00F0
00F0
00F0
00F0
00F0
00F0
00F0
00F0
00F0
00F0
00F0
00F0
00F0
00F0
00F0
00F0
00F0
00F0
01F0
7FF0
7FF0
ENDCHAR

STARTCHAR asciicircum
ENCODING 94
SWIDTH 469 0
DWIDTH 23 0
BBX 25 18 -1 16
BITMAP
00080000
000C0000
001E0000
003E0000
00370000
00630000
00618000
00C1C000
01C0C000
0180E000
03806000
03003000
06003000
0E001800
0C001C00
1C000C00
18000600
30000600
ENDCHAR

STARTCHAR underscore
ENCODING 95
SWIDTH 500 0
DWIDTH 25 0
BBX 29 2 -2 -10
BITMAP
3FFFFFE0
3FFFFFE0
ENDCHAR

STARTCHAR quoteleft
ENCODING 96
SWIDTH 292 0
DWIDTH 15 0
BBX 11 14 3 21
BITMAP
0080
0380
0F00
1C00
3800
3000
7000
7000
7800
7F00
7F80
3F80
3F80
1F00
ENDCHAR

STARTCHAR a
ENCODING 97
SWIDTH 479 0
DWIDTH 24 0
BBX 24 24 1 -1
BITMAP
00FF00
07FFC0
0F0FC0
1E03E0
1C01E0
3C01E0
3E01E0
3E01E0
1C01E0
0001E0
0007E0
003FE0
01F9E0
07C1E0
0F01E0
1E01E0
3C01E0
3C01E0
3C01E0
3E07E0
3F1FFC
1FFDFC
1FF1FC
07E0F0
ENDCHAR

STARTCHAR b
ENCODING 98
SWIDTH 562 0
DWIDTH 28 0
BBX 29 35 -1 -1
BITMAP
03800000
0F800000
7F800000
3F800000
0F800000
07800000
07800000
07800000
07800000
07800000
07800000
0781F000
0787FC00
079FFF00
07BFFF00
07F03F80
07C00FC0
078007C0
078007E0
078003E0
078003E0
078001E0
078001E0
078001E0
078001E0
078001E0
078001E0
078001C0
078003C0
07C00380
07C00780
07E00F00
07F83C00
01FFF800
003FC000
ENDCHAR

STARTCHAR c
ENCODING 99
SWIDTH 469 0
DWIDTH 23 0
BBX 23 24 0 -1
BITMAP
003FC0
00FFF0
03E0F8
078078
0F007C
0E003C
1E0018
1C0000
3C0000
3C0000
3C0000
3C0000
3C0000
3E0000
3E0000
3E0000
1F0000
1F800C
0FC018
0FF078
07FFF0
03FFE0
01FFC0
003F00
ENDCHAR

STARTCHAR d
ENCODING 100
SWIDTH 573 0
DWIDTH 29 0
BBX 29 36 0 -1
BITMAP
00000300
00001F00
0000FF00
00007F00
00003F00
00000F00
00000F00
00000F00
00000F00
00000F00
00000F00
00000F00
001FCF00
007FFF00
01E0FF00
03807F00
07003F00
0F001F00
0E001F00
1E000F00
1C000F00
3C000F00
3C000F00
3C000F00
3C000F00
3C000F00
3E000F00
3E000F00
3F000F00
1F000F00
1F801F00
0FC03F00
0FF0FF80
07FFEFF0
03FF8FF0
00FE0F00
ENDCHAR

STARTCHAR e
ENCODING 101
SWIDTH 469 0
DWIDTH 23 0
BBX 22 24 1 -1
BITMAP
007E00
03FF80
0707C0
0E03E0
1C01F0
1C01F0
3800F0
3FFFF8
3FFFF8
780000
780000
780000
780000
7C0000
7C0000
3C0000
3E0000
3F0000
1F8038
1FE0F0
0FFFE0
07FFC0
03FF80
00FE00
ENDCHAR

STARTCHAR f
ENCODING 102
SWIDTH 312 0
DWIDTH 16 0
BBX 23 35 -1 0
BITMAP
000FE0
003FF0
0071F8
00E0F8
01E078
01C020
03C000
03C000
03C000
03C000
03C000
07C000
3FFF00
3FFF00
03C000
03C000
03C000
03C000
03C000
03C000
03C000
03C000
03C000
03C000
03C000
03C000
03C000
03C000
03C000
03C000
03C000
07E000
0FF000
3FFE00
3FFE00
ENDCHAR

STARTCHAR g
ENCODING 103
SWIDTH 500 0
DWIDTH 25 0
BBX 27 33 0 -10
BITMAP
00FE0000
03FFF000
07C3FF80
0F81FF80
0F00FF80
1F00F800
1E007800
1E007800
1E007800
1F007800
1F007800
0F00F000
0F80F000
07C3E000
01FF8000
03FE0000
07000000
0E000000
0E000000
1FFFC000
1FFFFC00
1FFFFE00
0FFFFF00
07FFFF00
0C001F00
18000F00
38000700
78000600
78000E00
3E003C00
3FFFF000
0FFFC000
00FC0000
ENDCHAR

STARTCHAR h
ENCODING 104
SWIDTH 562 0
DWIDTH 28 0
BBX 29 35 0 0
BITMAP
01800000
0F800000
7F800000
7F800000
1F800000
07800000
07800000
07800000
07800000
07800000
07800000
07800000
0783F800
078FFC00
07BFFE00
07F87F00
07C01F00
07801F00
07800F00
07800F00
07800F00
07800F00
07800F00
07800F00
07800F00
07800F00
07800F00
07800F00
07800F00
07800F00
07800F00
07C01F80
0FE03FC0
7FF8FFF0
7FF8FFF0
ENDCHAR

STARTCHAR i
ENCODING 105
SWIDTH 271 0
DWIDTH 14 0
BBX 14 35 0 0
BITMAP
0700
0F80
0F80
0F80
0700
0000
0000
0000
0000
0000
0000
0000
0180
0F80
7F80
7F80
1F80
0780
0780
0780
0780
0780
0780
0780
0780
0780
0780
0780
0780
0780
0780
07C0
0FC0
7FF0
7FF0
ENDCHAR

STARTCHAR j
ENCODING 106
SWIDTH 260 0
DWIDTH 13 0
BBX 12 44 0 -9
BITMAP
0380
07C0
07C0
07C0
0380
0000
0000
0000
0000
0000
0000
0000
00C0
07C0
3FC0
3FC0
0FC0
03C0
03C0
03C0
03C0
03C0
03C0
03C0
03C0
03C0
03C0
03C0
03C0
03C0
03C0
03C0
03C0
03C0
03C0
03C0
07C0
0780
0700
0F00
1E00
1C00
3800
3000
ENDCHAR

STARTCHAR k
ENCODING 107
SWIDTH 510 0
DWIDTH 26 0
BBX 27 35 0 0
BITMAP
03800000
1F800000
3F800000
3F800000
0F800000
07800000
07800000
07800000
07800000
07800000
07800000
07800000
078FFF80
078FFF80
0781FC00
0780F800
0780E000
0781C000
07838000
07870000
078E0000
079C0000
07BC0000
07BF0000
079F8000
078FC000
0787E000
0783F000
0781F800
0780FC00
07807E00
0FC03F00
0FE01FC0
3FF80FC0
3FF807C0
ENDCHAR

STARTCHAR l
ENCODING 108
SWIDTH 271 0
DWIDTH 14 0
BBX 14 35 0 0
BITMAP
0180
0F80
3F80
7F80
1F80
0780
0780
0780
0780
0780
0780
0780
0780
0780
0780
0780
0780
0780
0780
0780
0780
0780
0780
0780
0780
0780
0780
0780
0780
0780
0780
07C0
1FC0
7FF0
7FF0
ENDCHAR

STARTCHAR m
ENCODING 109
SWIDTH 865 0
DWIDTH 43 0
BBX 44 23 0 0
BITMAP
0183F80FF000
0F8FFE1FF800
7FBFFE7FFC00
3FF83FF0FE00
1FE01F803E00
07800F003E00
07800F001E00
07800F001E00
07800F001E00
07800F001E00
07800F001E00
07800F001E00
07800F001E00
07800F001E00
07800F001E00
07800F001E00
07800F001E00
07800F001E00
07800F001E00
07C01F803F00
0FE03FC07F80
7FF8FFF1FFE0
7FF8FFF1FFE0
ENDCHAR

STARTCHAR n
ENCODING 110
SWIDTH 573 0
DWIDTH 29 0
BBX 29 23 0 0
BITMAP
0187F800
0F8FFC00
3F9FFE00
3FB87E00
1FE01F00
07C01F00
07800F00
07800F00
07800F00
07800F00
07800F00
07800F00
07800F00
07800F00
07800F00
07800F00
07800F00
07800F00
07800F00
07C01F80
1FE01FC0
7FF8FFF0
7FF8FFF0
ENDCHAR

STARTCHAR o
ENCODING 111
SWIDTH 542 0
DWIDTH 27 0
BBX 26 24 1 -1
BITMAP
007F0000
01FFE000
0381F000
0F00F800
0E007C00
1E003E00
3C003E00
3C001F00
3C001F00
7C001F00
7C001F00
7C000F00
7C000F00
7C000F00
3E000F00
3E000F00
3E000E00
1F000E00
1F001C00
0F803C00
07C03800
03E0F000
01FFC000
003F0000
ENDCHAR

STARTCHAR p
ENCODING 112
SWIDTH 562 0
DWIDTH 28 0
BBX 28 33 0 -10
BITMAP
0181E000
0F8FFC00
3F9FFE00
7FBFFF00
1FF03F80
07C01F80
07800F80
078007C0
078007C0
078007C0
078003C0
078003C0
078003C0
078003C0
078003C0
07800380
07800380
07800780
07C00700
07C00E00
07E01E00
07F83800
07FFF000
079FC000
07800000
07800000
07800000
07800000
07800000
0FC00000
0FC00000
7FF80000
7FF80000
ENDCHAR

STARTCHAR q
ENCODING 113
SWIDTH 562 0
DWIDTH 28 0
BBX 28 33 1 -10
BITMAP
003F8600
01FFF600
0381FE00
07007E00
0E007E00
1C003E00
3C003E00
38001E00
38001E00
78001E00
78001E00
78001E00
78001E00
78001E00
7C001E00
7C001E00
3E001E00
3E001E00
3F003E00
1FC0FE00
0FFFDE00
07FF9E00
03FE1E00
00F81E00
00001E00
00001E00
00001E00
00001E00
00001E00
00003F00
00007F80
0001FFE0
0001FFE0
ENDCHAR

STARTCHAR r
ENCODING 114
SWIDTH 375 0
DWIDTH 19 0
BBX 21 23 0 0
BITMAP
018780
0F8FC0
3F9FE0
7FBFE0
1FF1E0
07E0C0
07C000
078000
078000
078000
078000
078000
078000
078000
078000
078000
078000
078000
078000
07C000
0FE000
7FFC00
7FFC00
ENDCHAR

STARTCHAR s
ENCODING 115
SWIDTH 396 0
DWIDTH 20 0
BBX 19 24 1 -1
BITMAP
03F000
0FFE00
1C1F00
380F00
780700
780700
780300
7C0300
3E0000
3FC000
1FF000
0FFC00
03FE00
00FF00
003F80
000F80
300780
300380
300380
380380
380780
3E0F00
3FFE00
07F800
ENDCHAR

STARTCHAR t
ENCODING 116
SWIDTH 333 0
DWIDTH 17 0
BBX 18 28 0 -1
BITMAP
018000
038000
078000
0F8000
1FFF00
7FFF00
7FFF00
078000
078000
078000
078000
078000
078000
078000
078000
078000
078000
078000
078000
078000
078000
078000
078000
078000
07C000
07FF00
03FF00
01FC00
ENDCHAR

STARTCHAR u
ENCODING 117
SWIDTH 573 0
DWIDTH 29 0
BBX 30 24 -1 -1
BITMAP
1FC03F80
3FC07F80
1FC03F80
07C00F80
03C00780
03C00780
03C00780
03C00780
03C00780
03C00780
03C00780
03C00780
03C00780
03C00780
03C00780
03C00780
03C00780
03E00780
03E00F80
03F03F80
01FFF7C8
01FFE7F8
00FFC7F0
003E0600
ENDCHAR

STARTCHAR v
ENCODING 118
SWIDTH 479 0
DWIDTH 24 0
BBX 26 24 -1 -1
BITMAP
7FF0FF80
7FF0FF80
1F803E00
0F801C00
0F801C00
07801800
07801800
07C03000
03C03000
03E03000
03E06000
01E06000
01F0C000
00F0C000
00F88000
00F98000
00798000
007F0000
003F0000
003E0000
003E0000
001C0000
001C0000
000C0000
ENDCHAR

STARTCHAR w
ENCODING 119
SWIDTH 729 0
DWIDTH 36 0
BBX 39 24 -1 -1
BITMAP
3FE3FF87F8
3FE3FF87F8
1F807E01F0
0F803C00E0
0F803C00C0
07803E00C0
07801E0180
07C03E0180
03C03F0180
03C06F0300
01E06F0300
01E06F8200
01F0C78600
00F0C7C600
00F183CC00
00F983CC00
007B83EC00
007F01F800
003F01F800
003E01F000
003E00F000
001C00F000
001C00E000
000C006000
ENDCHAR

STARTCHAR x
ENCODING 120
SWIDTH 500 0
DWIDTH 25 0
BBX 26 23 0 0
BITMAP
7FE1FF00
7FE1FF00
1FC07C00
0FC07800
07C07000
03E06000
03F0C000
01F18000
00FB0000
007F0000
003E0000
003F0000
003F8000
003FC000
0067C000
00C3E000
0181F000
0381F800
0700FC00
0F007E00
1F80FF00
7FE3FF80
7FE3FF80
ENDCHAR

STARTCHAR y
ENCODING 121
SWIDTH 479 0
DWIDTH 24 0
BBX 26 33 -1 -10
BITMAP
7FF0FF80
7FF0FF80
1FC01E00
0F801C00
0F801C00
07801800
07C01800
03C01800
03E03000
01E03000
01F03000
01F06000
00F06000
00F8C000
0078C000
007CC000
003D8000
003D8000
003F8000
001F0000
001F0000
000E0000
000E0000
00060000
000C0000
000C0000
00080000
00180000
0C180000
1E700000
1FF00000
1FE00000
0F800000
ENDCHAR

STARTCHAR z
ENCODING 122
SWIDTH 437 0
DWIDTH 22 0
BBX 24 24 -1 0
BITMAP
180000
1FFFF8
1FFFFC
1F00F8
1C01F0
1801F0
0003E0
0007C0
000FC0
000F80
001F00
003E00
003E00
007C00
00F800
01F000
01F000
03E00C
07C00C
07801C
0F803C
1F00F8
3FFFF8
3FFFF8
ENDCHAR

STARTCHAR braceleft
ENCODING 123
SWIDTH 479 0
DWIDTH 24 0
BBX 16 46 4 -11
BITMAP
0004
0038
0060
00C0
0180
0380
0380
0380
0780
0780
0780
03C0
03C0
03C0
03C0
01C0
01C0
01C0
0180
0380
0300
0C00
3000
7800
0C00
0300
0300
0180
01C0
01C0
03C0
03C0
03C0
03C0
07C0
07C0
0780
0780
0380
0380
0380
0180
00C0
0060
0038
0004
ENDCHAR

STARTCHAR bar
ENCODING 124
SWIDTH 198 0
DWIDTH 10 0
BBX 5 46 3 -11
BITMAP
60
60
60
60
60
60
60
60
60
60
60
60
60
60
60
60
60
60
60
60
60
60
60
60
60
60
60
60
60
60
60
60
60
60
60
60
60
60
60
60
60
60
60
60
60
60
ENDCHAR

STARTCHAR braceright
ENCODING 125
SWIDTH 479 0
DWIDTH 24 0
BBX 16 46 4 -11
BITMAP
2000
1C00
0600
0300
0180
01C0
01C0
01C0
01E0
01E0
01E0
03E0
03C0
03C0
03C0
03C0
0380
0380
0180
00C0
0060
0030
001E
000E
0030
0060
00C0
0180
0380
0380
0380
03C0
03C0
03C0
01C0
01E0
01E0
01E0
01C0
01C0
01C0
0180
0300
0600
1C00
2000
ENDCHAR

STARTCHAR asciitilde
ENCODING 126
SWIDTH 542 0
DWIDTH 27 0
BBX 27 8 0 13
BITMAP
07E00040
0FF800C0
1FFE00C0
3CFF8180
303FE380
200FFF00
6003FE00
4000FC00
ENDCHAR

STARTCHAR space
ENCODING 160
SWIDTH 250 0
DWIDTH 15 0
BBX 0 0 0 0
BITMAP
ENDCHAR

STARTCHAR afii10023
ENCODING 161
SWIDTH 677 0
DWIDTH 34 0
BBX 34 43 0 0
BITMAP
0030038000
007807C000
00FC0FC000
00FC0FC000
00FC0FC000
0078078000
0000000000
0000000000
0000000000
3FFFFFFC00
3FFFFFFC00
07F000FC00
03F0007C00
01F0003C00
01F0001C00
01F0000C00
01F0000000
01F0000000
01F0000000
01F0006000
01F0006000
01F0006000
01F000E000
01F003E000
01FFFFE000
01FFFFE000
01F003E000
01F001E000
01F000E000
01F0006000
01F0006000
01F0000000
01F0000000
01F0000000
01F0000000
01F0000300
01F0000700
01F0000700
01F8000F00
03F8003E00
07FE01FE00
3FFFFFFE00
3FFFFFFE00
ENDCHAR

STARTCHAR afii10051
ENCODING 162
SWIDTH 823 0
DWIDTH 41 0
BBX 41 34 -1 0
BITMAP
3FFFFFFE0000
3FFFFFFE0000
3F03E07E0000
3C03E01E0000
3803E00E0000
3003E00E0000
3003E0060000
6003E0020000
0003E0000000
0003E0000000
0003E0000000
0003E0000000
0003E0000000
0003E0000000
0003E0FF8000
0003E3FFE000
0003E7FFF000
0003FF07F800
0003F801FC00
0003F000FE00
0003E0007E00
0003E0007F00
0003E0003F00
0003E0003F00
0003E0003F00
0003E0003F00
0003E0003F00
0003E0003E00
0003E0203E00
0003F0783C00
0007F07C7800
000FF87CF000
007FFE3FE000
007FFE1F8000
ENDCHAR

STARTCHAR afii10052
ENCODING 163
SWIDTH 635 0
DWIDTH 32 0
BBX 33 43 0 0
BITMAP
0003FC0000
0003F80000
0007E00000
0007C00000
000F000000
001E000000
0000000000
0000000000
0000000000
3FFFFFFC00
3FFFFFFC00
07FC03FC00
03F800FC00
03F0007C00
01F0003E00
01F0001E00
01F0000E00
01F0000600
01F0000000
01F0000000
01F0000000
01F0000000
01F0000000
01F0000000
01F0000000
01F0000000
01F0000000
01F0000000
01F0000000
01F0000000
01F0000000
01F0000000
01F0000000
01F0000000
01F0000000
01F0000000
01F0000000
01F0000000
01F8000000
03F8000000
07FC000000
3FFFC00000
3FFFC00000
ENDCHAR

STARTCHAR afii10053
ENCODING 164
SWIDTH 729 0
DWIDTH 36 0
BBX 36 36 1 -1
BITMAP
0000FFE000
0007FFFE00
001F80FF80
007E001F80
00F8000F80
01F0000780
03E00003C0
07C00001C0
0FC00000C0
0F800000C0
1F80000000
1F00000000
3F00000000
3F00000000
3F00000000
3F00000000
3FFFFF0000
3FFFFF0000
7F00000000
3F00000000
3F00000000
3F00000000
3F00000000
3F00000000
1F80000000
1F80000000
1FC0000100
0FC00003C0
07E00007E0
07F00007E0
03F0000FC0
01FC001FC0
007E003F80
003FC0FF00
0007FFFC00
0000FFC000
ENDCHAR

STARTCHAR afii10054
ENCODING 165
SWIDTH 594 0
DWIDTH 30 0
BBX 27 36 2 -1
BITMAP
007FC000
01FFF800
07E0FE00
0F803F00
1F001F00
1E000F00
3E000700
3E000700
3E000700
3F000300
3F800000
1FC00000
1FF00000
0FF80000
07FE0000
03FF8000
01FFC000
007FF000
003FF800
000FFC00
0003FE00
0001FF00
00007F00
00003F80
00001F80
70001F80
70000F80
70000F80
78000F80
78000F80
7C001F00
7E003E00
7F80FC00
3FFFF800
07FFE000
007F0000
ENDCHAR

STARTCHAR afii10055
ENCODING 166
SWIDTH 375 0
DWIDTH 19 0
BBX 19 34 0 0
BITMAP
7FFFC0
7FFFC0
07FC00
03F800
01F000
01F000
01F000
01F000
01F000
01F000
01F000
01F000
01F000
01F000
01F000
01F000
01F000
01F000
01F000
01F000
01F000
01F000
01F000
01F000
01F000
01F000
01F000
01F000
01F000
01F800
03F800
07FC00
7FFFC0
7FFFC0
ENDCHAR

STARTCHAR afii10056
ENCODING 167
SWIDTH 375 0
DWIDTH 19 0
BBX 21 42 -1 0
BITMAP
1C01E0
3E03F0
7E03F0
7E03F0
3E03E0
1800C0
000000
000000
3FFFE0
3FFFE0
03FF00
01FC00
01FC00
00F800
00F800
00F800
00F800
00F800
00F800
00F800
00F800
00F800
00F800
00F800
00F800
00F800
00F800
00F800
00F800
00F800
00F800
00F800
00F800
00F800
00F800
00F800
00F800
01FC00
01FC00
03FF00
3FFFE0
3FFFE0
ENDCHAR

STARTCHAR afii10057
ENCODING 168
SWIDTH 354 0
DWIDTH 18 0
BBX 22 43 -3 -9
BITMAP
0FFFF8
0FFFF8
00FF80
007F00
003E00
003E00
003E00
003E00
003E00
003E00
003E00
003E00
003E00
003E00
003E00
003E00
003E00
003E00
003E00
003E00
003E00
003E00
003E00
003E00
003E00
003E00
003E00
003E00
003E00
003E00
003E00
003E00
003E00
003E00
003E00
003E00
003C00
103C00
3C3C00
7C3800
7E7000
3FE000
1F8000
ENDCHAR

STARTCHAR afii10058
ENCODING 169
SWIDTH 986 0
DWIDTH 49 0
BBX 52 35 -2 -1
BITMAP
00FFFFFFF80000
00FFFFFFF80000
001F80FF800000
000F007F000000
0006003F000000
0006003E000000
0006003E000000
0006003E000000
0006003E000000
0006003E000000
0006003E000000
0006003E000000
0006003E000000
0006003E000000
0006003E000000
0006003E000000
0006003FFFE000
0006003FFFF800
0006003E01FE00
0006003E007F00
0006003E003F80
0006003E001F80
0006003E001FC0
0006003E000FC0
0004003E000FC0
0004003E000FC0
000C003E000FC0
000C003E000FC0
000C003E001F80
1818003F003F80
3C18007F007F00
3F30007F80FE00
3FF001FFFFF800
3FE007FFFFC000
1F800000000000
ENDCHAR

STARTCHAR afii10059
ENCODING 170
SWIDTH 1015 0
DWIDTH 51 0
BBX 52 34 0 0
BITMAP
3FFF87FFF00000
3FFF87FFF00000
07FC01FF000000
03F800FE000000
01F0007E000000
01F0007C000000
01F0007C000000
01F0007C000000
01F0007C000000
01F0007C000000
01F0007C000000
01F0007C000000
01F0007C000000
01F0007C000000
01F0007C000000
01FFFFFFFFE000
01FFFFFFFFF800
01F0007C01FE00
01F0007C007F00
01F0007C003F80
01F0007C001F80
01F0007C001FC0
01F0007C000FC0
01F0007C000FC0
01F0007C000FC0
01F0007C000FC0
01F0007C000FC0
01F0007C001FC0
01F0007C001F80
01F0007E003F80
03F800FE007F00
07FC01FF81FE00
3FFF87FFFFF800
3FFF87FFFF8000
ENDCHAR

STARTCHAR afii10060
ENCODING 171
SWIDTH 823 0
DWIDTH 41 0
BBX 43 34 -1 0
BITMAP
3FFFFFFE0000
3FFFFFFE0000
3F03E07E0000
3C03E01E0000
3803E00E0000
3003E00E0000
3003E0060000
6003E0020000
0003E0000000
0003E0000000
0003E0000000
0003E0000000
0003E0000000
0003E0000000
0003E0FF0000
0003E3FF8000
0003E7FFC000
0003EF0FE000
0003F807F000
0003F003F000
0003E001F000
0003E001F000
0003E001F000
0003E001F000
0003E001F000
0003E001F000
0003E001F000
0003E001F000
0003E001F000
0003F001F800
0007F003F800
000FF807FC00
007FFF1FFF80
007FFF1FFF80
ENDCHAR

STARTCHAR afii10061
ENCODING 172
SWIDTH 750 0
DWIDTH 38 0
BBX 39 43 0 0
BITMAP
00007F0000
0000FE0000
0000F80000
0001F00000
0003C00000
0003800000
0000000000
0000000000
0000000000
3FFFC007E0
3FFFC01FE0
07FC003FF0
03F8003FE0
03F80071E0
01F0006000
01F000E000
01F000C000
01F000C000
01F000C000
01F0018000
01F0018000
01F0018000
01F0030000
01F0070000
01F00E0000
01FFFC0000
01FFFE0000
01F03F0000
01F01F8000
01F00FC000
01F00FE000
01F007E000
01F003F000
01F001F800
01F001F800
01F000FC00
01F0007E00
01F0003F00
01F8003F80
03F8001F80
07FC000FE0
3FFFC007F8
3FFFC007F8
ENDCHAR

STARTCHAR hyphen
ENCODING 173
SWIDTH 365 0
DWIDTH 18 0
BBX 18 4 0 10
BITMAP
7FFF80
7FFF80
7FFF80
7FFF80
ENDCHAR

STARTCHAR afii10062
ENCODING 174
SWIDTH 750 0
DWIDTH 38 0
BBX 41 45 -1 -1
BITMAP
0006000E0000
000F001F0000
000F801F0000
000FC03E0000
0007E07E0000
0003FFF80000
00007FE00000
000000000000
000000000000
000000000000
7FFF000FFE00
7FFF000FFE00
1FF80003F800
07F00001F000
07F00000E000
03F80001C000
01F80001C000
00FC00018000
00FC00030000
007E00030000
007F00060000
003F00060000
001F800C0000
001F800C0000
000FC0180000
000FE0180000
0007E0300000
0003F0300000
0003F8600000
0001F8600000
0000FCC00000
0000FCC00000
00007F800000
00003F800000
00003F000000
00001F000000
00001E000000
00000E000000
00000C000000
00F018000000
01F818000000
01FC70000000
01FFE0000000
00FFC0000000
007F00000000
ENDCHAR

STARTCHAR afii10145
ENCODING 175
SWIDTH 854 0
DWIDTH 43 0
BBX 43 41 0 -7
BITMAP
3FFFC03FFFC0
3FFFC03FFFC0
07FC0007FC00
03F80003F800
03F80003F800
01F00001F000
01F00001F000
01F00001F000
01F00001F000
01F00001F000
01F00001F000
01F00001F000
01F00001F000
01F00001F000
01F00001F000
01F00001F000
01F00001F000
01F00001F000
01F00001F000
01F00001F000
01F00001F000
01F00001F000
01F00001F000
01F00001F000
01F00001F000
01F00001F000
01F00001F000
01F00001F000
01F00001F000
01F00003F800
03F80003F800
07FC0007FE00
3FFFFFFFFFC0
3FFFFFFFFFC0
00001F000000
00001F000000
00001F000000
00001F000000
00001F000000
00001F000000
00001F000000
ENDCHAR

STARTCHAR afii10017
ENCODING 176
SWIDTH 719 0
DWIDTH 36 0
BBX 38 34 -1 0
BITMAP
0000F80000
0000F80000
0000FC0000
0001FC0000
0001FE0000
0001BE0000
00033F0000
00033F0000
00071F0000
00061F8000
00060F8000
000C0FC000
000C07C000
001C07E000
001807E000
001803E000
003003F000
003001F000
007FFFF800
007FFFF800
007FFFFC00
00E000FC00
00C0007C00
01C0007E00
0180003E00
0180003F00
0380003F00
0380001F80
0780001F80
0780001F80
0F80001FC0
1FC0007FE0
7FF801FFF8
7FF801FFF8
ENDCHAR

STARTCHAR afii10018
ENCODING 177
SWIDTH 656 0
DWIDTH 33 0
BBX 32 34 0 0
BITMAP
3FFFFFC0
3FFFFFE0
07FC0FE0
03F807E0
01F001E0
01F000E0
01F00070
01F00070
01F00030
01F00000
01F00000
01F00000
01F00000
01F00000
01F00000
01F00000
01FFFE00
01FFFF80
01F01FE0
01F007F0
01F003F8
01F001F8
01F000FC
01F000FC
01F000FC
01F000FC
01F000FC
01F000FC
01F001FC
01F001F8
03F803F0
07FC0FE0
3FFFFF80
3FFFFC00
ENDCHAR

STARTCHAR afii10019
ENCODING 178
SWIDTH 688 0
DWIDTH 34 0
BBX 34 34 0 0
BITMAP
3FFFFF0000
3FFFFFE000
07F00FF800
03F003FC00
01F001FC00
01F000FE00
01F0007E00
01F0007E00
01F0007E00
01F0007E00
01F0007E00
01F000FC00
01F000F800
01F001F000
01F007C000
01FFFE0000
01FFFF8000
01F00FE000
01F003F800
01F000FC00
01F000FE00
01F0007E00
01F0003F00
01F0003F00
01F0003F00
01F0003F00
01F0003F00
01F0003F00
01F0007E00
01F8007E00
03F800FC00
07FE03F800
3FFFFFE000
3FFFFF8000
ENDCHAR

STARTCHAR afii10020
ENCODING 179
SWIDTH 635 0
DWIDTH 32 0
BBX 33 34 0 0
BITMAP
3FFFFFFC00
3FFFFFFC00
07FC03FC00
03F800FC00
03F0007C00
01F0003E00
01F0001E00
01F0000E00
01F0000600
01F0000000
01F0000000
01F0000000
01F0000000
01F0000000
01F0000000
01F0000000
01F0000000
01F0000000
01F0000000
01F0000000
01F0000000
01F0000000
01F0000000
01F0000000
01F0000000
01F0000000
01F0000000
01F0000000
01F0000000
01F8000000
03F8000000
07FC000000
3FFFC00000
3FFFC00000
ENDCHAR

STARTCHAR afii10021
ENCODING 180
SWIDTH 792 0
DWIDTH 40 0
BBX 41 41 -2 -7
BITMAP
00FFFFFFFE00
00FFFFFFFE00
000FC03FE000
0007001FC000
0007000FC000
0007000F8000
0006000F8000
0002000F8000
0002000F8000
0002000F8000
0002000F8000
0002000F8000
0002000F8000
0006000F8000
0006000F8000
0006000F8000
0006000F8000
0006000F8000
0006000F8000
0006000F8000
0006000F8000
0004000F8000
000C000F8000
000C000F8000
000C000F8000
000C000F8000
0008000F8000
0018000F8000
0018000F8000
0038000FC000
0038001FC000
00FC003FE000
3FFFFFFFFF00
3FFFFFFFFF00
3F800000FF00
3E0000003F00
3C0000001F00
380000000F00
300000000700
300000000700
300000000300
ENDCHAR

STARTCHAR afii10022
ENCODING 181
SWIDTH 677 0
DWIDTH 34 0
BBX 35 34 0 0
BITMAP
3FFFFFFC00
3FFFFFFC00
07F000FC00
03F0003C00
01F0001C00
01F0000C00
01F0000C00
01F0000000
01F0000000
01F0000000
01F0003000
01F0007000
01F0007000
01F000F000
01F001F000
01FFFFF000
01FFFFF000
01F003F000
01F000F000
01F0007000
01F0007000
01F0007000
01F0000000
01F0000000
01F0000000
01F0000000
01F0000380
01F0000380
01F8000700
01F8000F00
03FC001F00
07FE00FF00
3FFFFFFE00
3FFFFFFE00
ENDCHAR

STARTCHAR afii10024
ENCODING 182
SWIDTH 1031 0
DWIDTH 52 0
BBX 53 34 -1 0
BITMAP
0FC01FFFC01F80
1FE01FFFC03FC0
1FF003FE007FC0
1FF801FC00FFC0
0F3800F800E780
001C00F800C000
000C00F8018000
000C00F8018000
000600F8018000
000600F8030000
000600F8030000
000700F8030000
000300F8060000
000300F8060000
000180F80C0000
0001C0F81C0000
0000FFFFF80000
0001FFFFFC0000
0003F8F8FE0000
0007F0F87F0000
0007E0F83F0000
000FC0F81F8000
001F80F80FC000
003F00F807E000
003F00F807E000
007E00F803F000
00FC00F801F800
01F800F800FC00
01F800F800FC00
03F000FC007E00
07E001FC003F00
0FC003FE001FC0
3F801FFFC00FE0
3F801FFFC00FE0
ENDCHAR

STARTCHAR afii10025
ENCODING 183
SWIDTH 667 0
DWIDTH 33 0
BBX 33 36 0 -1
BITMAP
003FF80000
03FFFF0000
1FF01FC000
1FC007E000
1F8003F000
1F0001F800
1E0000F800
1E0000FC00
1C0000FC00
0C0000FC00
0C0000FC00
000000FC00
000001F800
000001F800
000003F000
00000FC000
000FFF0000
000FFF8000
00000FE000
000003F800
000001FC00
000000FC00
000000FE00
0000007E00
0000007E00
0000007E00
3C00007E00
7E00007E00
7F00007E00
7F0000FC00
7F8001F800
3F8001F800
1FC007E000
0FF01FC000
03FFFF0000
003FF80000
ENDCHAR

STARTCHAR afii10026
ENCODING 184
SWIDTH 854 0
DWIDTH 43 0
BBX 43 34 0 0
BITMAP
3FFF803FFFC0
3FFF803FFFC0
07FC0007FC00
03F80003F800
03F80003F800
01F00001F000
01F00003F000
01F00007F000
01F0000DF000
01F00019F000
01F00031F000
01F00071F000
01F000E1F000
01F001C1F000
01F00181F000
01F00301F000
01F00601F000
01F00C01F000
01F01801F000
01F03001F000
01F07001F000
01F0E001F000
01F1C001F000
01F18001F000
01F30001F000
01F60001F000
01FC0001F000
01F80001F000
01F00001F000
01F00001F800
03F80003F800
07FC0007FC00
3FFFC03FFFC0
3FFFC03FFFC0
ENDCHAR

STARTCHAR afii10027
ENCODING 185
SWIDTH 854 0
DWIDTH 43 0
BBX 43 44 0 0
BITMAP
000E000E0000
000F001E0000
001F803E0000
000F807E0000
000FE0FC0000
0003FFF80000
0000FFC00000
000000000000
000000000000
000000000000
3FFF803FFFC0
3FFF803FFFC0
07FC0007FC00
03F80003F800
03F80003F800
01F00001F000
01F00003F000
01F00007F000
01F0000DF000
01F00019F000
01F00031F000
01F00071F000
01F000E1F000
01F001C1F000
01F00181F000
01F00301F000
01F00601F000
01F00C01F000
01F01801F000
01F03001F000
01F07001F000
01F0E001F000
01F1C001F000
01F18001F000
01F30001F000
01F60001F000
01FC0001F000
01F80001F000
01F00001F000
01F00001F800
03F80003F800
07FC0007FC00
3FFFC03FFFC0
3FFFC03FFFC0
ENDCHAR

STARTCHAR afii10028
ENCODING 186
SWIDTH 750 0
DWIDTH 38 0
BBX 39 34 0 0
BITMAP
3FFFC007E0
3FFFC01FE0
07FC003FF0
03F8003FE0
03F80071E0
01F0006000
01F0006000
01F000C000
01F000C000
01F000C000
01F0018000
01F0018000
01F0018000
01F0030000
01F0070000
01F00E0000
01FFFC0000
01FFFE0000
01F03F0000
01F01F8000
01F00FC000
01F00FE000
01F007E000
01F003F000
01F001F800
01F001F800
01F000FC00
01F0007E00
01F0003F00
01F8003F80
03F8001F80
07FC000FE0
3FFFC007F8
3FFFC007F8
ENDCHAR

STARTCHAR afii10029
ENCODING 187
SWIDTH 760 0
DWIDTH 38 0
BBX 39 35 -1 -1
BITMAP
00FFFFFFF8
00FFFFFFF8
001F807FC0
000F003F80
0006001F80
0006001F00
0006001F00
0006001F00
0006001F00
0006001F00
0006001F00
0006001F00
0006001F00
0006001F00
0006001F00
0006001F00
0006001F00
0006001F00
0006001F00
0006001F00
0006001F00
0006001F00
0006001F00
0006001F00
0004001F00
0004001F00
000C001F00
000C001F00
000C001F00
0008001F80
3C18003F80
7E30007FC0
7FF003FFF8
7FE003FFF8
1F80000000
ENDCHAR

STARTCHAR afii10030
ENCODING 188
SWIDTH 1010 0
DWIDTH 51 0
BBX 52 34 0 0
BITMAP
07FE00000FFC00
07FE00000FFC00
01FE00000FF000
00FF00000FE000
007F00000FC000
007F00000FC000
007F80001FC000
007F80001FC000
006F80003FC000
006FC00037C000
00CFC00037E000
00C7E00067E000
00C7E00067E000
00C3F000E3E000
00C3F000C3E000
00C1F801C3E000
01C1F80183E000
0180FC0383F000
0180FC0303F000
01807E0703F000
01807E0601F000
01803F0E01F000
03803F0C01F000
03001F1C01F000
03001F9801F800
03000FB801F800
03000FF001F800
030007F001F800
070007E001F800
070003E001FC00
0F8003C001FC00
1FC003C003FF00
7FF801C01FFFC0
7FF801801FFFC0
ENDCHAR

STARTCHAR afii10031
ENCODING 189
SWIDTH 854 0
DWIDTH 43 0
BBX 43 34 0 0
BITMAP
3FFFC03FFFC0
3FFFC03FFFC0
07FC0007FC00
03F80003F800
01F80003F000
01F00001F000
01F00001F000
01F00001F000
01F00001F000
01F00001F000
01F00001F000
01F00001F000
01F00001F000
01F00001F000
01F00001F000
01FFFFFFF000
01FFFFFFF000
01FFFFFFF000
01F00001F000
01F00001F000
01F00001F000
01F00001F000
01F00001F000
01F00001F000
01F00001F000
01F00001F000
01F00001F000
01F00001F000
01F00001F000
01F80001F800
03F80003F800
07FC0007FC00
3FFFC03FFFC0
3FFFC03FFFC0
ENDCHAR

STARTCHAR afii10032
ENCODING 190
SWIDTH 813 0
DWIDTH 41 0
BBX 38 36 2 -1
BITMAP
0003FE0000
001FFFC000
007E07F000
00F801F800
01E000FC00
03C0007E00
0780003F00
0F80001F80
0F00001FC0
1F00000FC0
1F00000FE0
3E000007E0
3E000007E0
3E000007F0
3E000007F0
7E000003F0
7E000003F0
7E000003F0
7E000003F0
7E000003F0
7E000003F0
7F000003F0
7F000003F0
3F000003E0
3F000003E0
3F800007E0
1F800007C0
1FC00007C0
0FC0000F80
07E0000F00
07F0001E00
03F8003C00
00FC00F800
007F03E000
001FFF8000
0003FC0000
ENDCHAR

STARTCHAR afii10033
ENCODING 191
SWIDTH 854 0
DWIDTH 43 0
BBX 43 34 0 0
BITMAP
3FFFFFFFFFC0
3FFFFFFFFFC0
07FC0007FC00
03F80003F800
01F00003F800
01F00001F000
01F00001F000
01F00001F000
01F00001F000
01F00001F000
01F00001F000
01F00001F000
01F00001F000
01F00001F000
01F00001F000
01F00001F000
01F00001F000
01F00001F000
01F00001F000
01F00001F000
01F00001F000
01F00001F000
01F00001F000
01F00001F000
01F00001F000
01F00001F000
01F00001F000
01F00001F000
01F00001F000
01F80001F800
03F80003F800
07FC0007FC00
3FFFC03FFFC0
3FFFC03FFFC0
ENDCHAR

STARTCHAR afii10034
ENCODING 192
SWIDTH 635 0
DWIDTH 32 0
BBX 33 34 0 0
BITMAP
3FFFFF0000
3FFFFFC000
07F00FF000
03F003F800
01F001FC00
01F000FC00
01F000FE00
01F0007E00
01F0007E00
01F0007E00
01F0007E00
01F0007E00
01F000FC00
01F000FC00
01F001F800
01F007F000
01F1FFE000
01F1FF8000
01F0F80000
01F0000000
01F0000000
01F0000000
01F0000000
01F0000000
01F0000000
01F0000000
01F0000000
01F0000000
01F0000000
01F8000000
03F8000000
07FC000000
3FFFC00000
3FFFC00000
ENDCHAR

STARTCHAR afii10035
ENCODING 193
SWIDTH 781 0
DWIDTH 39 0
BBX 36 36 1 -1
BITMAP
00007FE000
0003FFFE00
001FC0FFC0
003E001FC0
00FC000FC0
01F80003C0
03F00001C0
03E00001C0
07C00000C0
0FC0000060
0F80000000
1F80000000
1F80000000
1F00000000
3F00000000
3F00000000
3F00000000
3F00000000
3F00000000
3F00000000
3F00000000
3F00000000
3F80000000
1F80000000
1F80000000
1FC0000060
0FC0000060
0FE00000E0
07E00000E0
03F00001E0
01F80003E0
00FC0007E0
007F000FE0
001FE03FC0
0007FFFE00
0000FFE000
ENDCHAR

STARTCHAR afii10036
ENCODING 194
SWIDTH 760 0
DWIDTH 38 0
BBX 39 34 -1 0
BITMAP
3FFFFFFFF8
3FFFFFFFF8
3F007C01F8
7C007C007C
78007C003C
70007C001C
70007C001C
60007C000C
00007C0000
00007C0000
00007C0000
00007C0000
00007C0000
00007C0000
00007C0000
00007C0000
00007C0000
00007C0000
00007C0000
00007C0000
00007C0000
00007C0000
00007C0000
00007C0000
00007C0000
00007C0000
00007C0000
00007C0000
00007C0000
00007C0000
0000FE0000
0001FF0000
001FFFE000
001FFFE000
ENDCHAR

STARTCHAR afii10037
ENCODING 195
SWIDTH 750 0
DWIDTH 38 0
BBX 41 35 -1 -1
BITMAP
7FFF000FFE00
7FFF000FFE00
1FF80003F800
07F00001F000
07F00000E000
03F80001C000
01F80001C000
00FC00018000
00FC00030000
007E00030000
007F00060000
003F00060000
001F800C0000
001F800C0000
000FC0180000
000FE0180000
0007E0300000
0003F0300000
0003F8600000
0001F8600000
0000FCC00000
0000FCC00000
00007F800000
00003F800000
00003F000000
00001F000000
00001E000000
00000E000000
00000C000000
00F018000000
01F818000000
01FC70000000
01FFE0000000
00FFC0000000
007F00000000
ENDCHAR

STARTCHAR afii10038
ENCODING 196
SWIDTH 974 0
DWIDTH 49 0
BBX 48 34 0 0
BITMAP
0000FFFF0000
0000FFFF0000
00001FF00000
00000FE00000
000007C00000
000007C00000
0007FFFFE000
007FF7CFFE00
01F807C01F80
07E007C007E0
0F8007C001F0
1F0007C001F8
3F0007C000FC
3E0007C0007C
7E0007C0007E
7E0007C0007E
7E0007C0007E
7E0007C0007E
7E0007C0007E
3E0007C0007E
3E0007C000FC
3F0007C000FC
1F8007C001F8
0F8007C003F0
07E007C00FE0
01F807C07F80
007FFFFFFC00
0007FFFFC000
000007C00000
000007E00000
00000FE00000
00001FF00000
0000FFFF0000
0000FFFF0000
ENDCHAR

STARTCHAR afii10039
ENCODING 197
SWIDTH 781 0
DWIDTH 39 0
BBX 41 34 -1 0
BITMAP
3FFFC07FF800
3FFFC07FF800
07FE001FE000
03FC000F8000
01FC000F0000
00FE000E0000
007E001C0000
003F00180000
003F80300000
001FC0700000
000FE0E00000
0007F1C00000
0003F3800000
0001FB000000
0001FE000000
0000FE000000
00007F000000
00003F800000
00007FC00000
0000EFC00000
0001C7E00000
000187F00000
000303F80000
000701FC0000
000E00FE0000
001C007E0000
0038007F0000
0070003F8000
00F0001FC000
01F0001FE000
03F0001FF000
0FF8001FFC00
3FFF00FFFF00
3FFF00FFFF00
ENDCHAR

STARTCHAR afii10040
ENCODING 198
SWIDTH 854 0
DWIDTH 43 0
BBX 44 41 0 -7
BITMAP
3FFFC03FFFC0
3FFFC03FFFC0
07FC0007FC00
03F80003F800
03F80003F800
01F00001F000
01F00001F000
01F00001F000
01F00001F000
01F00001F000
01F00001F000
01F00001F000
01F00001F000
01F00001F000
01F00001F000
01F00001F000
01F00001F000
01F00001F000
01F00001F000
01F00001F000
01F00001F000
01F00001F000
01F00001F000
01F00001F000
01F00001F000
01F00001F000
01F00001F000
01F00001F000
01F00001F000
01F00003F800
03F80003F800
07FC000FFC00
3FFFFFFFFFC0
3FFFFFFFFFC0
000000000FC0
0000000007C0
0000000003C0
0000000001C0
0000000000C0
0000000000C0
0000000000C0
ENDCHAR

STARTCHAR afii10041
ENCODING 199
SWIDTH 854 0
DWIDTH 43 0
BBX 43 34 0 0
BITMAP
3FFFC03FFFC0
3FFFC03FFFC0
07FC0007FC00
03F80003F800
03F80003F800
01F00001F000
01F00001F000
01F00001F000
01F00001F000
01F00001F000
01F00001F000
01F00001F000
01F00001F000
01F00001F000
01F00001F000
01F80003F000
00F80003F000
00FC0007F000
007C000DF000
007F0039F000
003FC0F1F000
000FFFC1F000
0001FF01F000
00000001F000
00000001F000
00000001F000
00000001F000
00000001F000
00000001F000
00000001F800
00000003F800
00000007FC00
0000003FFFC0
0000003FFFC0
ENDCHAR

STARTCHAR afii10042
ENCODING 200
SWIDTH 1052 0
DWIDTH 53 0
BBX 51 34 1 0
BITMAP
7FFE1FFF0FFFC0
7FFE1FFF0FFFC0
0FF807FC03FE00
07F003F801FC00
03E001F000FC00
03E001F000F800
03E001F000F800
03E001F000F800
03E001F000F800
03E001F000F800
03E001F000F800
03E001F000F800
03E001F000F800
03E001F000F800
03E001F000F800
03E001F000F800
03E001F000F800
03E001F000F800
03E001F000F800
03E001F000F800
03E001F000F800
03E001F000F800
03E001F000F800
03E001F000F800
03E001F000F800
03E001F000F800
03E001F000F800
03E001F000F800
03E001F000F800
03E001F800FC00
07F003F801FC00
0FF807FC03FE00
7FFFFFFFFFFFC0
7FFFFFFFFFFFC0
ENDCHAR

STARTCHAR afii10043
ENCODING 201
SWIDTH 1052 0
DWIDTH 53 0
BBX 52 41 1 -7
BITMAP
7FFE1FFF0FFFC0
7FFE1FFF0FFFC0
0FF807FC03FE00
07F003F801FC00
03E001F000FC00
03E001F000F800
03E001F000F800
03E001F000F800
03E001F000F800
03E001F000F800
03E001F000F800
03E001F000F800
03E001F000F800
03E001F000F800
03E001F000F800
03E001F000F800
03E001F000F800
03E001F000F800
03E001F000F800
03E001F000F800
03E001F000F800
03E001F000F800
03E001F000F800
03E001F000F800
03E001F000F800
03E001F000F800
03E001F000F800
03E001F000F800
03E001F000F800
03E001F800FC00
07F003F801FC00
0FF807FC03FE00
7FFFFFFFFFFFC0
7FFFFFFFFFFFC0
00000000000FC0
000000000003C0
000000000003C0
000000000001C0
000000000000C0
000000000000C0
000000000000C0
ENDCHAR

STARTCHAR afii10044
ENCODING 202
SWIDTH 775 0
DWIDTH 39 0
BBX 40 34 -1 0
BITMAP
1FFFFF8000
1FFFFF8000
3FC1FC0000
3F01F80000
3E01F80000
3C01F00000
3801F00000
3001F00000
3001F00000
0001F00000
0001F00000
0001F00000
0001F00000
0001F00000
0001F00000
0001F00000
0001FFFE00
0001FFFF80
0001F01FE0
0001F007F0
0001F003F8
0001F001F8
0001F000FC
0001F000FC
0001F000FC
0001F000FC
0001F000FC
0001F000FC
0001F001F8
0001F001F8
0003F803F0
0007FC0FE0
003FFFFF80
003FFFFC00
ENDCHAR

STARTCHAR afii10045
ENCODING 203
SWIDTH 1031 0
DWIDTH 52 0
BBX 52 34 0 0
BITMAP
3FFFC0003FFFC0
3FFFC0003FFFC0
07FC000003FE00
03F8000001FC00
01F8000000FC00
01F0000000F800
01F0000000F800
01F0000000F800
01F0000000F800
01F0000000F800
01F0000000F800
01F0000000F800
01F0000000F800
01F0000000F800
01F0000000F800
01F0000000F800
01FFFF0000F800
01FFFFC000F800
01F00FF000F800
01F003F800F800
01F001FC00F800
01F000FC00F800
01F000FE00F800
01F0007E00F800
01F0007E00F800
01F0007E00F800
01F0007E00F800
01F000FE00F800
01F000FC00F800
01F001FC00FC00
03F803F801FC00
07FC07F003FE00
3FFFFFC03FFFC0
3FFFFC003FFFC0
ENDCHAR

STARTCHAR afii10046
ENCODING 204
SWIDTH 632 0
DWIDTH 32 0
BBX 32 34 0 0
BITMAP
3FFF8000
3FFF8000
07FC0000
03F80000
01F00000
01F00000
01F00000
01F00000
01F00000
01F00000
01F00000
01F00000
01F00000
01F00000
01F00000
01F00000
01FFFE00
01FFFF80
01F01FE0
01F007F0
01F003F8
01F001F8
01F000FC
01F000FC
01F000FC
01F000FC
01F000FC
01F000FC
01F001F8
01F001F8
03F803F0
07FC0FE0
3FFFFF80
3FFFFC00
ENDCHAR

STARTCHAR afii10047
ENCODING 205
SWIDTH 719 0
DWIDTH 36 0
BBX 36 36 0 -1
BITMAP
007FF00000
07FFFE0000
1FE01F8000
1F8007E000
1E0001F000
3C0000F800
3C00007C00
3800003E00
3000003F00
3000001F00
0000001F80
0000000F80
0000000FC0
0000000FC0
0000000FC0
0000000FC0
001FFFFFC0
001FFFFFC0
0000000FC0
0000000FC0
0000000FC0
0000000FC0
0000000FC0
0000001FC0
0000001F80
0000001F80
1000003F00
3C00003F00
7E00007E00
7E0000FC00
7F0001FC00
3F8003F800
1FC007E000
0FF03FC000
03FFFE0000
007FF00000
ENDCHAR

STARTCHAR afii10048
ENCODING 206
SWIDTH 1177 0
DWIDTH 59 0
BBX 59 36 0 -1
BITMAP
000000001FF00000
3FFFC000FFFE0000
3FFFC003E03F8000
07FC000F800FC000
03F8001F0007E000
03F8003E0003F000
01F0007C0001F800
01F000780000FC00
01F000F80000FE00
01F001F000007E00
01F001F000007F00
01F001F000003F00
01F003F000003F00
01F003E000003F80
01F003E000003F80
01F003E000001F80
01FFFFE000001F80
01FFFFE000001F80
01FFFFF000001F80
01F007F000001F80
01F003F000001F80
01F003F000001F80
01F003F000001F80
01F003F000001F00
01F003F800001F00
01F001F800003F00
01F001FC00003E00
01F000FC00003C00
01F000FE00007C00
01F0007E0000F800
01F8003F0000F000
03F8001F8001E000
07FC000FE007C000
3FFFC003F81F0000
3FFFC001FFFC0000
000000003FE00000
ENDCHAR

STARTCHAR afii10049
ENCODING 207
SWIDTH 740 0
DWIDTH 37 0
BBX 38 34 -1 0
BITMAP
0001FFFFF0
000FFFFFF0
003FC03F80
007F003F00
00FE003F00
00FC003E00
01F8003E00
01F8003E00
01F8003E00
01F8003E00
01F8003E00
00F8003E00
00FC003E00
007C003E00
003E003E00
001F803E00
0007FFFE00
00007FFE00
0001FC3E00
0003F83E00
0007F03E00
0007E03E00
000FC03E00
001FC03E00
003F803E00
007F003E00
00FE003E00
01FC003E00
03F8003E00
07F8003F00
0FF0007F00
1FE000FF80
7FC007FFF0
7F8007FFF0
ENDCHAR

STARTCHAR afii10065
ENCODING 208
SWIDTH 479 0
DWIDTH 24 0
BBX 24 24 1 -1
BITMAP
00FF00
07FFC0
0F0FC0
1E03E0
1C01E0
3C01E0
3E01E0
1E01E0
1C01E0
0001E0
0007E0
003FE0
01F9E0
07C1E0
0F01E0
1E01E0
3C01E0
3C01E0
3C01E0
3E07E0
3F1FFC
1FFDFC
1FF9FC
07E0F0
ENDCHAR

STARTCHAR afii10066
ENCODING 209
SWIDTH 542 0
DWIDTH 27 0
BBX 25 36 1 -1
BITMAP
00000600
003FFE00
01FFFC00
03FFFC00
07FFF800
0FFFE000
0F800000
1E000000
1C000000
38000000
30000000
30000000
307F0000
21FFC000
6383F000
6700F800
6E00FC00
7E007C00
7E003E00
7C003E00
7C003E00
7C001F00
7C001F00
7C001F00
7C001F00
7C001F00
3C001E00
3E001E00
3E001E00
1E001E00
1F003C00
0F803800
07807000
03E0E000
01FFC000
007E0000
ENDCHAR

STARTCHAR afii10067
ENCODING 210
SWIDTH 552 0
DWIDTH 28 0
BBX 27 23 0 0
BITMAP
7FFFF000
7FFFFC00
1FC03F00
07800F00
07800F80
07800F80
07800F80
07800F00
07801F00
07803C00
07FFF000
07FFF800
07803E00
07800F00
07800780
078007C0
078007C0
078007C0
078007C0
0FC00F80
1FE01F00
7FFFFE00
7FFFF000
ENDCHAR

STARTCHAR afii10068
ENCODING 211
SWIDTH 438 0
DWIDTH 22 0
BBX 23 23 -1 0
BITMAP
7FFFF8
7FFFF8
1FE0FC
07C03C
07801C
07801C
07800C
078000
078000
078000
078000
078000
078000
078000
078000
078000
078000
078000
078000
07C000
1FC000
7FF800
7FF800
ENDCHAR

STARTCHAR afii10069
ENCODING 212
SWIDTH 542 0
DWIDTH 27 0
BBX 29 30 -2 -7
BITMAP
07FFFFF0
07FFFFF0
00F03FC0
00601F80
00600F00
00600F00
00600F00
00600F00
00600F00
00600F00
00600F00
00400F00
00400F00
00C00F00
00C00F00
00C00F00
00800F00
01800F00
01800F00
03801F00
07803F80
3FFFFFF0
3FFFFFF0
3E0001F0
3C0000F0
38000070
30000070
30000030
30000030
20000030
ENDCHAR

STARTCHAR afii10070
ENCODING 213
SWIDTH 469 0
DWIDTH 23 0
BBX 22 24 1 -1
BITMAP
007E00
03FF80
0707C0
0E03E0
1C01F0
1C01F0
3800F0
3FFFF8
3FFFF8
780000
780000
780000
780000
7C0000
7C0000
3C0000
3E0000
3F0000
1F8038
1FE0F0
0FFFE0
07FFC0
03FF80
00FE00
ENDCHAR

STARTCHAR afii10072
ENCODING 214
SWIDTH 854 0
DWIDTH 43 0
BBX 44 23 -1 0
BITMAP
0E00FFF00700
1F80FFF01F80
3FC01FC01FC0
1FC01F803F80
0CC00F003300
00400F002000
00600F006000
00600F006000
00600F006000
00300F00C000
001FFFFF8000
003FFFFFC000
007E0F07E000
007C0F01F000
00F80F01F000
01F00F00F800
01E00F007800
03E00F007C00
03C00F003C00
07C01F803E00
0F801FC01F00
3F80FFF01FC0
3F00FFF00FC0
ENDCHAR

STARTCHAR afii10073
ENCODING 215
SWIDTH 469 0
DWIDTH 23 0
BBX 24 24 0 -1
BITMAP
00FF00
03FFE0
0F81F0
1F00F8
1E007C
1E007C
0C007C
0C007C
000078
0000F8
0001F0
007FC0
007FC0
0001F0
0000F8
00007C
00007C
18007C
3C007C
3E007C
3E00F8
3F03F0
1FFFE0
03FF00
ENDCHAR

STARTCHAR afii10074
ENCODING 216
SWIDTH 583 0
DWIDTH 29 0
BBX 29 23 0 0
BITMAP
7FF8FFF0
7FF8FFF0
0FC01FC0
07800F80
07801F00
07803F00
07807F00
07806F00
0780CF00
07818F00
07830F00
07870F00
07860F00
078C0F00
07980F00
07B00F00
07F00F00
07E00F00
07C00F00
07C00F80
0FE01FC0
7FF8FFF0
7FF8FFF0
ENDCHAR

STARTCHAR afii10075
ENCODING 217
SWIDTH 583 0
DWIDTH 29 0
BBX 30 33 0 0
BITMAP
01E01E00
01E01E00
01E01E00
00E01E00
00F03C00
003FF000
00078000
00000000
00000000
00000000
7FF87FF8
7FF87FF8
0FE01FE0
07C00FC0
07800F80
07801F80
07803780
07807780
0780E780
0780C780
07818780
07830780
07860780
078C0780
079C0780
07B80780
07F00780
07E00780
07C00780
07C00FC0
0FE01FE0
7FF87FF8
7FF87FF8
ENDCHAR

STARTCHAR afii10076
ENCODING 218
SWIDTH 573 0
DWIDTH 29 0
BBX 29 23 0 0
BITMAP
7FF803C0
7FF807E0
1FE00FE0
07C00FE0
078019C0
07801800
07801800
07801000
07803000
07807000
07FFE000
07FFE000
0781F000
0780F800
07807C00
07807C00
07803E00
07801E00
07801F00
0FC00F00
1FE00FC0
7FF807F0
7FF807F0
ENDCHAR

STARTCHAR afii10077
ENCODING 219
SWIDTH 573 0
DWIDTH 29 0
BBX 30 23 -1 0
BITMAP
03FFFFF8
03FFFFF8
007C1FE0
00380FC0
00300780
00300780
00300780
00300780
00300780
00300780
00300780
00300780
00300780
00300780
00300780
00300780
00300780
00300780
18200780
3E600FC0
3FC01FE0
3F807FF8
1F007FF8
ENDCHAR

STARTCHAR afii10078
ENCODING 220
SWIDTH 625 0
DWIDTH 31 0
BBX 32 23 0 0
BITMAP
0FF00FF8
0FF00FF8
07F80BE0
03781BC0
03781BC0
037813C0
037C13C0
023C33E0
063C33E0
063C21E0
061E61E0
061E61E0
061E61E0
041F41E0
040FC1F0
0C0FC0F0
0C0F80F0
0C0780F0
0C0780F0
1C0780F8
1E0701FC
7F0307FE
7F0307FE
ENDCHAR

STARTCHAR afii10079
ENCODING 221
SWIDTH 563 0
DWIDTH 28 0
BBX 29 23 0 0
BITMAP
7FF87FF0
7FF87FF0
0FC01F80
07800F80
07800F00
07800F00
07800F00
07800F00
07800F00
07800F00
07FFFF00
07FFFF00
07800F00
07800F00
07800F00
07800F00
07800F00
07800F00
07800F00
0FC00F80
1FE03FC0
7FF87FF0
7FF87FF0
ENDCHAR

STARTCHAR afii10080
ENCODING 222
SWIDTH 542 0
DWIDTH 27 0
BBX 26 24 1 -1
BITMAP
007F0000
01FFE000
0381F000
0F00F800
0E007C00
1E003E00
3C003E00
3C001F00
3C001F00
7C001F00
7C001F00
7C000F00
7C000F00
7C000F00
3E000F00
3E000F00
3E000E00
1F000E00
1F001C00
0F801C00
07C03800
03E0F000
01FFC000
003F0000
ENDCHAR

STARTCHAR afii10081
ENCODING 223
SWIDTH 573 0
DWIDTH 29 0
BBX 29 23 0 0
BITMAP
7FFFFFF0
7FFFFFF0
1FE03FC0
0FC01F80
07800F00
07800F00
07800F00
07800F00
07800F00
07800F00
07800F00
07800F00
07800F00
07800F00
07800F00
07800F00
07800F00
07800F00
07800F00
07800F80
1FE03FC0
7FF87FF0
7FF87FF0
ENDCHAR

STARTCHAR afii10082
ENCODING 224
SWIDTH 562 0
DWIDTH 28 0
BBX 28 33 0 -10
BITMAP
0181E000
0F8FFC00
3F9FFE00
7FBFFF00
1FF03F80
07C01F80
07800F80
078007C0
078007C0
078007C0
078003C0
078003C0
078003C0
078003C0
078003C0
07800380
07800380
07800780
07C00700
07C00E00
07E01E00
07F83800
07FFF000
079FC000
07800000
07800000
07800000
07800000
07800000
0FC00000
0FC00000
7FF80000
7FF80000
ENDCHAR

STARTCHAR afii10083
ENCODING 225
SWIDTH 469 0
DWIDTH 23 0
BBX 23 24 0 -1
BITMAP
003FC0
00FFF0
03E0F8
078078
0F007C
0E003C
1E0018
1C0000
3C0000
3C0000
3C0000
3C0000
3C0000
3E0000
3E0000
3E0000
1F0000
1F800C
0FC018
0FF078
07FFF0
03FFE0
01FFC0
003F00
ENDCHAR

STARTCHAR afii10084
ENCODING 226
SWIDTH 458 0
DWIDTH 23 0
BBX 24 23 -1 0
BITMAP
3FFFFC
3FFFFC
3E3C7C
3C3C3C
383C1C
303C0C
203C04
003C00
003C00
003C00
003C00
003C00
003C00
003C00
003C00
003C00
003C00
003C00
003C00
007E00
00FF00
07FFE0
07FFE0
ENDCHAR

STARTCHAR afii10085
ENCODING 227
SWIDTH 479 0
DWIDTH 24 0
BBX 26 33 -1 -10
BITMAP
7FF0FF80
7FF0FF80
1FC01E00
0F801C00
0F801C00
07801800
07C01800
03C01800
03E03000
01E03000
01F03000
01F06000
00F06000
00F8C000
0078C000
007CC000
003D8000
003D8000
003F8000
001F0000
001F0000
000E0000
000E0000
00060000
000C0000
000C0000
00080000
00180000
0C180000
1E700000
1FF00000
1FE00000
0F800000
ENDCHAR

STARTCHAR afii10086
ENCODING 228
SWIDTH 750 0
DWIDTH 38 0
BBX 36 45 1 -10
BITMAP
0000100000
0000F00000
0007F00000
000FF00000
0003F00000
0001F00000
0000F00000
0000F00000
0000F00000
0000F00000
0000F00000
0000F00000
00F8F1F000
03FEF7FC00
0787FE1E00
0F01F80F00
1E00F00780
1E00F007C0
3C00F003C0
3C00F003C0
3C00F003E0
7C00F003E0
7C00F003E0
7C00F003E0
7C00F003E0
7C00F003E0
7C00F003E0
3C00F003C0
3C00F003C0
3E00F003C0
1E00F00780
1E00F00780
0F01F80F00
0787FE1E00
03FEF7FC00
00F8F1F000
0000F00000
0000F00000
0000F00000
0000F00000
0000F00000
0001F80000
0003F80000
000FFF0000
000FFF0000
ENDCHAR

STARTCHAR afii10087
ENCODING 229
SWIDTH 500 0
DWIDTH 25 0
BBX 26 23 0 0
BITMAP
7FE1FF00
7FE1FF00
1FC07C00
0FC07800
07C07000
03E06000
03F0C000
01F18000
00FB0000
007F0000
003E0000
003F0000
003F8000
003FC000
0067C000
00C3E000
0181F000
0381F800
0700FC00
0F007E00
1F80FF00
7FE3FF80
7FE3FF80
ENDCHAR

STARTCHAR afii10088
ENCODING 230
SWIDTH 573 0
DWIDTH 29 0
BBX 29 30 0 -7
BITMAP
7FF8FFF0
7FF8FFF0
0FE01FC0
0FC00F80
07800F00
07800F00
07800F00
07800F00
07800F00
07800F00
07800F00
07800F00
07800F00
07800F00
07800F00
07800F00
07800F00
07800F00
07800F00
0FC00F00
1FE01F80
7FFFFFF0
7FFFFFF0
000001F0
000000F0
00000070
00000070
00000030
00000030
00000030
ENDCHAR

STARTCHAR afii10089
ENCODING 231
SWIDTH 573 0
DWIDTH 29 0
BBX 29 23 0 0
BITMAP
7FF87FF0
7FF87FF0
1FC01FC0
07800F80
07800F00
07800F00
07800F00
07800F00
07800F00
07800F00
07800F00
03C03F00
03E0EF00
01FFCF00
007F0F00
00000F00
00000F00
00000F00
00000F00
00001F80
00003FC0
00007FF0
00007FF0
ENDCHAR

STARTCHAR afii10090
ENCODING 232
SWIDTH 854 0
DWIDTH 43 0
BBX 44 23 -1 0
BITMAP
7FF8FFF1FFE0
7FF8FFF1FFE0
1FE03F803F00
0FC01F803F00
07800F001E00
07800F001E00
07800F001E00
07800F001E00
07800F001E00
07800F001E00
07800F001E00
07800F001E00
07800F001E00
07800F001E00
07800F001E00
07800F001E00
07800F001E00
07800F001E00
07800F001E00
07C01F803F00
0FE03FC07F80
7FFFFFFFFFE0
7FFFFFFFFFE0
ENDCHAR

STARTCHAR afii10091
ENCODING 233
SWIDTH 854 0
DWIDTH 43 0
BBX 44 30 -1 -7
BITMAP
7FF8FFF1FFE0
7FF8FFF1FFE0
1FE03F803F00
0FC01F803F00
07800F001E00
07800F001E00
07800F001E00
07800F001E00
07800F001E00
07800F001E00
07800F001E00
07800F001E00
07800F001E00
07800F001E00
07800F001E00
07800F001E00
07800F001E00
07800F001E00
07800F001E00
07C01F803E00
0FE03FC07F00
7FFFFFFFFFE0
7FFFFFFFFFE0
0000000003E0
0000000001E0
0000000000E0
0000000000E0
000000000060
000000000060
000000000060
ENDCHAR

STARTCHAR afii10092
ENCODING 234
SWIDTH 638 0
DWIDTH 32 0
BBX 32 23 -1 0
BITMAP
3FFFE000
3FFFE000
3C1F8000
381E0000
301E0000
301E0000
001E0000
001E0000
001E0000
001E0000
001FFFC0
001FFFF0
001E01F8
001E007C
001E003E
001E003E
001E003E
001E003E
001E003E
003E007C
007F01F8
01FFFFF0
01FFFFC0
ENDCHAR

STARTCHAR afii10093
ENCODING 235
SWIDTH 792 0
DWIDTH 40 0
BBX 40 23 0 0
BITMAP
7FF8001FFE
7FF8001FFE
1FE00007F8
07C00001F0
07800001E0
07800001E0
07800001E0
07800001E0
07800001E0
07800001E0
07FFF001E0
07FFFC01E0
07807E01E0
07801F01E0
07800F81E0
07800F81E0
07800F81E0
07800F81E0
07800F81E0
07801F03F0
1FC07E07F8
7FFFFC1FFE
7FFFF01FFE
ENDCHAR

STARTCHAR afii10094
ENCODING 236
SWIDTH 485 0
DWIDTH 24 0
BBX 24 23 -1 0
BITMAP
3FF800
3FF800
0FE000
07C000
078000
078000
078000
078000
078000
078000
07FFC0
07FFF0
0780F8
07807C
07803E
07803E
07803E
07803E
07803C
07807C
0FC0F8
3FFFF0
3FFFC0
ENDCHAR

STARTCHAR afii10095
ENCODING 237
SWIDTH 490 0
DWIDTH 24 0
BBX 23 24 0 -1
BITMAP
01FC00
07FF80
1F03C0
3E01E0
3C00F0
1800F8
180078
100078
00007C
00007C
007FFC
007FFC
00007C
00007C
00007C
000078
000078
3C0078
3E00F0
3E00F0
3F01E0
1F83C0
0FFF00
01FC00
ENDCHAR

STARTCHAR afii10096
ENCODING 238
SWIDTH 813 0
DWIDTH 41 0
BBX 40 24 0 -1
BITMAP
7FF800FC00
7FF807FF80
0FF00F07C0
07C01C03E0
07803801F0
07803800F8
07807800F8
078078007C
0780F0007C
0780F0007C
0780F0007C
07FFF8003C
07FFF8003C
0780F8003C
0780F8003C
0780F8003C
07807C0038
07807C0078
07803C0070
07803E0070
0FC01F00E0
7FF80F83C0
7FF803FF00
000000FC00
ENDCHAR

STARTCHAR afii10097
ENCODING 239
SWIDTH 563 0
DWIDTH 28 0
BBX 30 23 -1 0
BITMAP
001FFFF0
00FFFFF0
01F03FC0
03E01F80
07C00F00
07C00F00
07C00F00
07C00F00
03C00F00
01E00F00
00FFFF00
001FFF00
003E0F00
007C0F00
00F80F00
00F00F00
00F00F00
01E00F00
03E00F00
03C00F80
0FC01FC0
3F80FFF0
3F80FFF0
ENDCHAR

STARTCHAR afii61352
ENCODING 240
SWIDTH 1031 0
DWIDTH 52 0
BBX 51 35 0 -1
BITMAP
07FC0000FC0000
07FE0003FE0000
01FE0003FE0000
00FF00073C0000
007F8006000000
007F8004000000
006FC00C000000
0067C00C000000
0067E00C000000
0063F00C00F800
0063F00C01FE00
0061F80C070F00
0060FC0C070780
0060FC040E0780
00607E040E03C0
00607E041E03C0
00603F041E03C0
00601F841E03C0
00601F841E03C0
00600FC41E03C0
00600FC60E0380
006007E60F0380
006003F6070300
006003F6078700
006001FE03FE00
006001FE00F800
006000FE000000
0060007E000000
0060007E000000
0060003E000000
18E0003E000000
7FC0001E0FFF80
7FC0000E0FFF80
3F80000E0FFF80
1E000006000000
ENDCHAR

STARTCHAR afii10071
ENCODING 241
SWIDTH 469 0
DWIDTH 23 0
BBX 23 33 1 -1
BITMAP
038380
07C7C0
07C7C0
07C7C0
038380
000000
000000
000000
000000
007E00
01FF80
0387C0
0601E0
0E01F0
1C00F0
1C00F8
1FFFF8
3FFFF8
3C0000
3C0000
3C0000
3C0000
3C0000
3E0000
3E0000
1F0000
1F8000
1FC018
0FE070
07FFF0
03FFE0
01FF80
007E00
ENDCHAR

STARTCHAR afii10099
ENCODING 242
SWIDTH 513 0
DWIDTH 26 0
BBX 26 44 -1 -9
BITMAP
01800000
0F800000
7F800000
3F800000
1F800000
07800000
07800000
7FFFF800
7FFFF800
07800000
07800000
07800000
07800000
07800000
0787E000
078FF800
079FFC00
07B87E00
07E03E00
07801F00
07801F00
07800F00
07800F00
07800F00
07800F00
07800F00
07800F00
07800F00
07800F00
07800F00
07800E00
07C01E00
0FE01E00
7FF81C00
7FF81C00
00003800
00003800
00007000
00006000
0000E000
0000C000
00018000
00030000
00060000
ENDCHAR

STARTCHAR afii10100
ENCODING 243
SWIDTH 458 0
DWIDTH 23 0
BBX 23 34 0 0
BITMAP
000F00
000F00
001E00
001C00
003C00
003800
003000
000000
000000
000000
000000
7FFFF8
7FFFF8
1FE0FC
07C03C
07801C
07801C
07800C
078000
078000
078000
078000
078000
078000
078000
078000
078000
078000
078000
078000
07C000
1FC000
7FF800
7FF800
ENDCHAR

STARTCHAR afii10101
ENCODING 244
SWIDTH 490 0
DWIDTH 24 0
BBX 23 24 1 -1
BITMAP
007F00
01FFE0
07C1F8
0F8078
1F0078
1E0038
3E0030
3C0000
3C0000
7C0000
7FFC00
7FFC00
7C0000
7C0000
3C0000
3C0000
3E0000
1E0078
1E0078
0F00F8
0700F8
03C3F0
01FFE0
003F80
ENDCHAR

STARTCHAR afii10102
ENCODING 245
SWIDTH 396 0
DWIDTH 20 0
BBX 19 24 1 -1
BITMAP
03F000
0FFE00
1C1F00
380F00
780700
780700
780300
7C0300
3E0000
3FC000
1FF000
0FFC00
03FE00
00FF00
003F80
000F80
300780
300380
300380
380380
380780
3E0F00
3FFE00
07F800
ENDCHAR

STARTCHAR afii10103
ENCODING 246
SWIDTH 271 0
DWIDTH 14 0
BBX 14 35 0 0
BITMAP
0700
0F80
0F80
0F80
0700
0000
0000
0000
0000
0000
0000
0000
0180
0F80
7F80
7F80
1F80
0780
0780
0780
0780
0780
0780
0780
0780
0780
0780
0780
0780
0780
0780
07C0
0FC0
7FF0
7FF0
ENDCHAR

STARTCHAR afii10104
ENCODING 247
SWIDTH 271 0
DWIDTH 14 0
BBX 15 32 -1 0
BITMAP
3838
7C7C
7C7C
7C7C
3838
0000
0000
0000
0000
00C0
07C0
3FC0
3FC0
0FC0
03C0
03C0
03C0
03C0
03C0
03C0
03C0
03C0
03C0
03C0
03C0
03C0
03C0
03C0
03E0
07E0
3FF8
3FF8
ENDCHAR

STARTCHAR afii10105
ENCODING 248
SWIDTH 260 0
DWIDTH 13 0
BBX 12 44 0 -9
BITMAP
0380
07C0
07C0
07C0
0380
0000
0000
0000
0000
0000
0000
0000
00C0
07C0
3FC0
3FC0
0FC0
03C0
03C0
03C0
03C0
03C0
03C0
03C0
03C0
03C0
03C0
03C0
03C0
03C0
03C0
03C0
03C0
03C0
03C0
03C0
07C0
0780
0700
0F00
1E00
1C00
3800
3000
ENDCHAR

STARTCHAR afii10106
ENCODING 249
SWIDTH 831 0
DWIDTH 42 0
BBX 40 23 0 0
BITMAP
07FFFFE000
07FFFFE000
00F83FC000
00701F8000
00600F0000
00600F0000
00600F0000
00600F0000
00600F0000
00600F0000
00600FFFC0
00600FFFF0
00600F00F8
00600F007C
00600F003E
00600F003E
00600F003E
00600F003E
18400F003E
3CC00F007C
7FC03F80F8
7F80FFFFF0
3F00FFFF80
ENDCHAR

STARTCHAR afii10107
ENCODING 250
SWIDTH 814 0
DWIDTH 41 0
BBX 40 23 0 0
BITMAP
7FF0FFE000
7FF0FFE000
0FC03F8000
0FC01F0000
07801E0000
07801E0000
07801E0000
07801E0000
07801E0000
07801E0000
07FFFFFFC0
07FFFFFFF0
07801E00F8
07801E007C
07801E003E
07801E003E
07801E003E
07801E003E
07801E003E
0FC01E007C
1FE03F01F8
7FF0FFFFF0
7FF0FFFF80
ENDCHAR

STARTCHAR afii10108
ENCODING 251
SWIDTH 573 0
DWIDTH 29 0
BBX 29 35 0 0
BITMAP
00800000
07800000
3F800000
7F800000
1F800000
0F800000
07800000
07800000
07800000
07800000
07800000
7FFFFC00
7FFFFC00
07800000
07800000
07800000
07800000
0783F800
078FFC00
079FFE00
07F87E00
07C01F00
07800F00
07800F00
07800F00
07800F00
07800F00
07800F00
07800F00
07800F00
07800F00
07800F80
0FC01FC0
7FF8FFF0
7FF8FFF0
ENDCHAR

STARTCHAR afii10109
ENCODING 252
SWIDTH 573 0
DWIDTH 29 0
BBX 29 33 0 0
BITMAP
0001F000
0001E000
0003C000
00038000
00030000
00070000
00060000
00000000
00000000
00000000
7FF803C0
7FF807E0
1FE00FE0
07C00FE0
078019C0
07801800
07801800
07801000
07803000
07807000
07FFE000
07FFE000
0781F000
0780F800
07807C00
07807C00
07803E00
07801E00
07801F00
0FC00F00
1FE00FC0
7FF807F0
7FF807F0
ENDCHAR

STARTCHAR section
ENCODING 253
SWIDTH 427 0
DWIDTH 21 0
BBX 21 45 0 -10
BITMAP
007F00
01FFC0
031FC0
0607E0
0E03C0
1E0080
1F0000
1B0000
3B0000
338000
31C000
31C000
30E000
30E000
387000
383800
383800
381C00
181E00
1C0E00
1C0700
0E0700
0E0380
070380
0701C0
0381C0
03C1C0
01C0C0
01E0E0
00F0E0
007060
007860
003860
001C60
001C60
000E60
000660
000760
0003C0
0003C0
1E03C0
3F0780
1FCF00
1FFE00
07F800
ENDCHAR

STARTCHAR afii10110
ENCODING 254
SWIDTH 479 0
DWIDTH 24 0
BBX 27 43 0 -10
BITMAP
03C03C00
03C03C00
03C03C00
01C03800
01E07800
007FE000
000F0000
00000000
00000000
00000000
7FF87FC0
7FF87FC0
1FC01F00
0F800E00
07800E00
07C00C00
03C00C00
03E00C00
03E01800
01F01800
01F03800
00F03000
00F83000
00786000
007C6000
003CE000
003EC000
003EC000
001F8000
001F8000
000F8000
000F0000
00070000
00060000
00060000
00060000
000C0000
000C0000
0C180000
1E380000
1FF00000
1FE00000
0FC00000
ENDCHAR

STARTCHAR afii10193
ENCODING 255
SWIDTH 573 0
DWIDTH 29 0
BBX 30 30 -1 -7
BITMAP
7FF87FF8
7FF87FF8
0FE01FE0
0FC00FC0
07800780
07800780
07800780
07800780
07800780
07800780
07800780
07800780
07800780
07800780
07800780
07800780
07800780
07800780
07800780
07C00F80
1FE01FC0
7FFFFFF8
7FFFFFF8
00078000
00078000
00078000
00078000
00078000
00078000
00078000
ENDCHAR
ENDFONT
